  0
SECTION
  2
HEADER
  9
$ACADVER
  1
AC1015
  9
$ACADMAINTVER
 70
     6
  9
$DWGCODEPAGE
  3
ANSI_1252
  9
$INSBASE
 10
0.0
 20
0.0
 30
0.0
  9
$EXTMIN
 10
1.000000000000000E+20
 20
1.000000000000000E+20
 30
1.000000000000000E+20
  9
$EXTMAX
 10
-1.000000000000000E+20
 20
-1.000000000000000E+20
 30
-1.000000000000000E+20
  9
$LIMMIN
 10
0.0
 20
0.0
  9
$LIMMAX
 10
12.0
 20
9.0
  9
$ORTHOMODE
 70
     0
  9
$REGENMODE
 70
     1
  9
$FILLMODE
 70
     1
  9
$QTEXTMODE
 70
     0
  9
$MIRRTEXT
 70
     1
  9
$LTSCALE
 40
1.0
  9
$ATTMODE
 70
     1
  9
$TEXTSIZE
 40
0.2
  9
$TRACEWID
 40
0.05
  9
$TEXTSTYLE
  7
Standard
  9
$CLAYER
  8
0
  9
$CELTYPE
  6
ByLayer
  9
$CECOLOR
 62
   256
  9
$CELTSCALE
 40
1.0
  9
$DISPSILH
 70
     0
  9
$DIMSCALE
 40
1.0
  9
$DIMASZ
 40
0.18
  9
$DIMEXO
 40
0.0625
  9
$DIMDLI
 40
0.38
  9
$DIMRND
 40
0.0
  9
$DIMDLE
 40
0.0
  9
$DIMEXE
 40
0.18
  9
$DIMTP
 40
0.0
  9
$DIMTM
 40
0.0
  9
$DIMTXT
 40
0.18
  9
$DIMCEN
 40
0.09
  9
$DIMTSZ
 40
0.0
  9
$DIMTOL
 70
     0
  9
$DIMLIM
 70
     0
  9
$DIMTIH
 70
     1
  9
$DIMTOH
 70
     1
  9
$DIMSE1
 70
     0
  9
$DIMSE2
 70
     0
  9
$DIMTAD
 70
     0
  9
$DIMZIN
 70
     0
  9
$DIMBLK
  1

  9
$DIMASO
 70
     1
  9
$DIMSHO
 70
     1
  9
$DIMPOST
  1

  9
$DIMAPOST
  1

  9
$DIMALT
 70
     0
  9
$DIMALTD
 70
     2
  9
$DIMALTF
 40
25.4
  9
$DIMLFAC
 40
1.0
  9
$DIMTOFL
 70
     0
  9
$DIMTVP
 40
0.0
  9
$DIMTIX
 70
     0
  9
$DIMSOXD
 70
     0
  9
$DIMSAH
 70
     0
  9
$DIMBLK1
  1

  9
$DIMBLK2
  1

  9
$DIMSTYLE
  2
Standard
  9
$DIMCLRD
 70
     0
  9
$DIMCLRE
 70
     0
  9
$DIMCLRT
 70
     0
  9
$DIMTFAC
 40
1.0
  9
$DIMGAP
 40
0.09
  9
$DIMJUST
 70
     0
  9
$DIMSD1
 70
     0
  9
$DIMSD2
 70
     0
  9
$DIMTOLJ
 70
     1
  9
$DIMTZIN
 70
     0
  9
$DIMALTZ
 70
     0
  9
$DIMALTTZ
 70
     0
  9
$DIMUPT
 70
     0
  9
$DIMDEC
 70
     4
  9
$DIMTDEC
 70
     4
  9
$DIMALTU
 70
     2
  9
$DIMALTTD
 70
     2
  9
$DIMTXSTY
  7
Standard
  9
$DIMAUNIT
 70
     0
  9
$DIMADEC
 70
     0
  9
$DIMALTRND
 40
0.0
  9
$DIMAZIN
 70
     0
  9
$DIMDSEP
 70
    46
  9
$DIMATFIT
 70
     3
  9
$DIMFRAC
 70
     0
  9
$DIMLDRBLK
  1

  9
$DIMLUNIT
 70
     2
  9
$DIMLWD
 70
    -2
  9
$DIMLWE
 70
    -2
  9
$DIMTMOVE
 70
     0
  9
$LUNITS
 70
     2
  9
$LUPREC
 70
     4
  9
$SKETCHINC
 40
0.1
  9
$FILLETRAD
 40
0.5
  9
$AUNITS
 70
     0
  9
$AUPREC
 70
     0
  9
$MENU
  1
.
  9
$ELEVATION
 40
0.0
  9
$PELEVATION
 40
0.0
  9
$THICKNESS
 40
0.0
  9
$LIMCHECK
 70
     0
  9
$CHAMFERA
 40
0.5
  9
$CHAMFERB
 40
0.5
  9
$CHAMFERC
 40
1.0
  9
$CHAMFERD
 40
0.0
  9
$SKPOLY
 70
     0
  9
$TDCREATE
 40
2458437.634309699
  9
$TDUCREATE
 40
2458437.592643032
  9
$TDUPDATE
 40
2458437.634309734
  9
$TDUUPDATE
 40
2458437.592643067
  9
$TDINDWG
 40
0.0000000116
  9
$TDUSRTIMER
 40
0.0000000116
  9
$USRTIMER
 70
     1
  9
$ANGBASE
 50
0.0
  9
$ANGDIR
 70
     0
  9
$PDMODE
 70
     0
  9
$PDSIZE
 40
0.0
  9
$PLINEWID
 40
0.0
  9
$SPLFRAME
 70
     0
  9
$SPLINETYPE
 70
     6
  9
$SPLINESEGS
 70
     8
  9
$HANDSEED
  5
89
  9
$SURFTAB1
 70
     6
  9
$SURFTAB2
 70
     6
  9
$SURFTYPE
 70
     6
  9
$SURFU
 70
     6
  9
$SURFV
 70
     6
  9
$UCSBASE
  2

  9
$UCSNAME
  2

  9
$UCSORG
 10
0.0
 20
0.0
 30
0.0
  9
$UCSXDIR
 10
1.0
 20
0.0
 30
0.0
  9
$UCSYDIR
 10
0.0
 20
1.0
 30
0.0
  9
$UCSORTHOREF
  2

  9
$UCSORTHOVIEW
 70
     0
  9
$UCSORGTOP
 10
0.0
 20
0.0
 30
0.0
  9
$UCSORGBOTTOM
 10
0.0
 20
0.0
 30
0.0
  9
$UCSORGLEFT
 10
0.0
 20
0.0
 30
0.0
  9
$UCSORGRIGHT
 10
0.0
 20
0.0
 30
0.0
  9
$UCSORGFRONT
 10
0.0
 20
0.0
 30
0.0
  9
$UCSORGBACK
 10
0.0
 20
0.0
 30
0.0
  9
$PUCSBASE
  2

  9
$PUCSNAME
  2

  9
$PUCSORG
 10
0.0
 20
0.0
 30
0.0
  9
$PUCSXDIR
 10
1.0
 20
0.0
 30
0.0
  9
$PUCSYDIR
 10
0.0
 20
1.0
 30
0.0
  9
$PUCSORTHOREF
  2

  9
$PUCSORTHOVIEW
 70
     0
  9
$PUCSORGTOP
 10
0.0
 20
0.0
 30
0.0
  9
$PUCSORGBOTTOM
 10
0.0
 20
0.0
 30
0.0
  9
$PUCSORGLEFT
 10
0.0
 20
0.0
 30
0.0
  9
$PUCSORGRIGHT
 10
0.0
 20
0.0
 30
0.0
  9
$PUCSORGFRONT
 10
0.0
 20
0.0
 30
0.0
  9
$PUCSORGBACK
 10
0.0
 20
0.0
 30
0.0
  9
$USERI1
 70
     0
  9
$USERI2
 70
     0
  9
$USERI3
 70
     0
  9
$USERI4
 70
     0
  9
$USERI5
 70
     0
  9
$USERR1
 40
0.0
  9
$USERR2
 40
0.0
  9
$USERR3
 40
0.0
  9
$USERR4
 40
0.0
  9
$USERR5
 40
0.0
  9
$WORLDVIEW
 70
     1
  9
$SHADEDGE
 70
     3
  9
$SHADEDIF
 70
    70
  9
$TILEMODE
 70
     1
  9
$MAXACTVP
 70
    64
  9
$PINSBASE
 10
0.0
 20
0.0
 30
0.0
  9
$PLIMCHECK
 70
     0
  9
$PEXTMIN
 10
1.000000000000000E+20
 20
1.000000000000000E+20
 30
1.000000000000000E+20
  9
$PEXTMAX
 10
-1.000000000000000E+20
 20
-1.000000000000000E+20
 30
-1.000000000000000E+20
  9
$PLIMMIN
 10
0.0
 20
0.0
  9
$PLIMMAX
 10
12.0
 20
9.0
  9
$UNITMODE
 70
     0
  9
$VISRETAIN
 70
     1
  9
$PLINEGEN
 70
     0
  9
$PSLTSCALE
 70
     1
  9
$TREEDEPTH
 70
  3020
  9
$CMLSTYLE
  2
Standard
  9
$CMLJUST
 70
     0
  9
$CMLSCALE
 40
1.0
  9
$PROXYGRAPHICS
 70
     1
  9
$MEASUREMENT
 70
     0
  9
$CELWEIGHT
370
    -1
  9
$ENDCAPS
280
     0
  9
$JOINSTYLE
280
     0
  9
$LWDISPLAY
290
     1
  9
$INSUNITS
 70
     1
  9
$HYPERLINKBASE
  1

  9
$STYLESHEET
  1

  9
$XEDIT
290
     1
  9
$CEPSNTYPE
380
     0
  9
$PSTYLEMODE
290
     1
  9
$FINGERPRINTGUID
  2
{78677E49-7810-4688-85EF-348A217C4154}
  9
$VERSIONGUID
  2
{FAEB1C32-E019-11D5-929B-00C0DF256EC4}
  9
$EXTNAMES
290
     1
  9
$PSVPSCALE
 40
0.0
  9
$OLESTARTUP
290
     0
  0
ENDSEC
  0
SECTION
  2
CLASSES
  0
CLASS
  1
ACDBDICTIONARYWDFLT
  2
AcDbDictionaryWithDefault
  3
ObjectDBX Classes
 90
        0
280
     0
281
     0
  0
CLASS
  1
VISUALSTYLE
  2
AcDbVisualStyle
  3
ObjectDBX Classes
 90
     4095
280
     0
281
     0
  0
CLASS
  1
MATERIAL
  2
AcDbMaterial
  3
ObjectDBX Classes
 90
     1153
280
     0
281
     0
  0
CLASS
  1
SUN
  2
AcDbSun
  3
SCENEOE
 90
     1024
280
     0
281
     0
  0
CLASS
  1
DICTIONARYVAR
  2
AcDbDictionaryVar
  3
ObjectDBX Classes
 90
        0
280
     0
281
     0
  0
CLASS
  1
ACDBPLACEHOLDER
  2
AcDbPlaceHolder
  3
ObjectDBX Classes
 90
        0
280
     0
281
     0
  0
CLASS
  1
LAYOUT
  2
AcDbLayout
  3
ObjectDBX Classes
 90
        0
280
     0
281
     0
  0
ENDSEC
  0
SECTION
  2
TABLES
  0
TABLE
  2
VPORT
  5
8
330
0
100
AcDbSymbolTable
 70
     1
  0
VPORT
  5
29
330
8
100
AcDbSymbolTableRecord
100
AcDbViewportTableRecord
  2
*Active
 70
     0
 10
0.0
 20
0.0
 11
1.0
 21
1.0
 12
0.0
 22
0.0
 13
0.0
 23
0.0
 14
0.5
 24
0.5
 15
0.5
 25
0.5
 16
0.0
 26
0.0
 36
1.0
 17
338.6666665819824
 27
-190.499999952375
 37
0.0
 40
380.99999990475
 41
1.777777777777685
 42
50.0
 43
0.0
 44
0.0
 50
0.0
 51
0.0
 71
     0
 72
   100
 73
     1
 74
     3
 75
     0
 76
     0
 77
     0
 78
     0
281
     0
 65
     1
110
0.0
120
0.0
130
0.0
111
1.0
121
0.0
131
0.0
112
0.0
122
1.0
132
0.0
 79
     0
146
0.0
  0
ENDTAB
  0
TABLE
  2
LTYPE
  5
5
330
0
100
AcDbSymbolTable
 70
     1
  0
LTYPE
  5
14
330
5
100
AcDbSymbolTableRecord
100
AcDbLinetypeTableRecord
  2
ByBlock
 70
     0
  3

 72
    65
 73
     0
 40
0.0
  0
LTYPE
  5
15
330
5
100
AcDbSymbolTableRecord
100
AcDbLinetypeTableRecord
  2
ByLayer
 70
     0
  3

 72
    65
 73
     0
 40
0.0
  0
LTYPE
  5
16
330
5
100
AcDbSymbolTableRecord
100
AcDbLinetypeTableRecord
  2
Continuous
 70
     0
  3
Solid line
 72
    65
 73
     0
 40
0.0
  0
ENDTAB
  0
TABLE
  2
LAYER
  5
2
330
0
100
AcDbSymbolTable
 70
     2
  0
LAYER
  5
10
330
2
100
AcDbSymbolTableRecord
100
AcDbLayerTableRecord
  2
0
 70
     0
 62
     7
  6
Continuous
370
    -3
390
F
  0
LAYER
  5
40
330
2
100
AcDbSymbolTableRecord
100
AcDbLayerTableRecord
  2
Laag 1
 70
     0
 62
     7
  6
Continuous
370
    -3
390
F
  0
ENDTAB
  0
TABLE
  2
STYLE
  5
3
330
0
100
AcDbSymbolTable
 70
     1
  0
STYLE
  5
11
330
3
100
AcDbSymbolTableRecord
100
AcDbTextStyleTableRecord
  2
Standard
 70
     0
 40
0.0
 41
1.0
 50
0.0
 71
     0
 42
0.2
  3
txt
  4

  0
ENDTAB
  0
TABLE
  2
VIEW
  5
6
330
0
100
AcDbSymbolTable
 70
     0
  0
ENDTAB
  0
TABLE
  2
UCS
  5
7
330
0
100
AcDbSymbolTable
 70
     0
  0
ENDTAB
  0
TABLE
  2
APPID
  5
9
330
0
100
AcDbSymbolTable
 70
     1
  0
APPID
  5
12
330
9
100
AcDbSymbolTableRecord
100
AcDbRegAppTableRecord
  2
ACAD
 70
     0
  0
ENDTAB
  0
TABLE
  2
DIMSTYLE
  5
A
330
0
100
AcDbSymbolTable
 70
     1
100
AcDbDimStyleTable
  0
DIMSTYLE
105
27
330
A
100
AcDbSymbolTableRecord
100
AcDbDimStyleTableRecord
  2
Standard
 70
     0
178
     0
340
11
  0
ENDTAB
  0
TABLE
  2
BLOCK_RECORD
  5
1
330
0
100
AcDbSymbolTable
 70
     2
  0
BLOCK_RECORD
  5
1F
330
1
100
AcDbSymbolTableRecord
100
AcDbBlockTableRecord
  2
*Model_Space
340
22
  0
BLOCK_RECORD
  5
1B
330
1
100
AcDbSymbolTableRecord
100
AcDbBlockTableRecord
  2
*Paper_Space
340
1E
  0
BLOCK_RECORD
  5
23
330
1
100
AcDbSymbolTableRecord
100
AcDbBlockTableRecord
  2
*Paper_Space0
340
26
  0
BLOCK_RECORD
  5
41
330
1
100
AcDbSymbolTableRecord
100
AcDbBlockTableRecord
  2
block 2
340
0
102
{BLKREFS
331
42
102
}
  0
ENDTAB
  0
ENDSEC
  0
SECTION
  2
BLOCKS
  0
BLOCK
  5
20
330
1F
100
AcDbEntity
  8
0
100
AcDbBlockBegin
  2
*Model_Space
 70
     0
 10
0.0
 20
0.0
 30
0.0
  3
*Model_Space
  1

  0
ENDBLK
  5
21
330
1F
100
AcDbEntity
  8
0
100
AcDbBlockEnd
  0
BLOCK
  5
1C
330
1B
100
AcDbEntity
 67
     1
  8
0
100
AcDbBlockBegin
  2
*Paper_Space
 70
     0
 10
0.0
 20
0.0
 30
0.0
  3
*Paper_Space
  1

  0
ENDBLK
  5
1D
330
1B
100
AcDbEntity
 67
     1
  8
0
100
AcDbBlockEnd
  0
BLOCK
  5
24
330
23
100
AcDbEntity
  8
0
100
AcDbBlockBegin
  2
*Paper_Space0
 70
     0
 10
0.0
 20
0.0
 30
0.0
  3
*Paper_Space0
  1

  0
ENDBLK
  5
25
330
23
100
AcDbEntity
  8
0
100
AcDbBlockEnd
  0
BLOCK
  5
43
330
41
100
AcDbEntity
  8
0
100
AcDbBlockBegin
  2
block 2
 70
     0
 10
0.0
 20
0.0
 30
0.0
  3
block 2
  1

  0
SPLINE
  5
45
330
41
100
AcDbEntity
  8
Laag 1
 62
     7
370
   140
100
AcDbSpline
210
0.0
220
0.0
230
1.0
 70
     8
 71
     3
 72
   362
 73
   358
 74
     0
 42
0.0000000001
 43
0.0000000001
 12
1.0
 22
0.0
 32
0.0
 13
1.0
 23
0.0
 33
0.0
 40
0.0
 40
0.0
 40
0.0
 40
0.0
 40
1.0
 40
1.0
 40
1.0
 40
2.0
 40
2.0
 40
2.0
 40
3.0
 40
3.0
 40
3.0
 40
4.0
 40
4.0
 40
4.0
 40
5.0
 40
5.0
 40
5.0
 40
6.0
 40
6.0
 40
6.0
 40
7.0
 40
7.0
 40
7.0
 40
8.0
 40
8.0
 40
8.0
 40
9.0
 40
9.0
 40
9.0
 40
10.0
 40
10.0
 40
10.0
 40
11.0
 40
11.0
 40
11.0
 40
12.0
 40
12.0
 40
12.0
 40
13.0
 40
13.0
 40
13.0
 40
14.0
 40
14.0
 40
14.0
 40
15.0
 40
15.0
 40
15.0
 40
16.0
 40
16.0
 40
16.0
 40
17.0
 40
17.0
 40
17.0
 40
18.0
 40
18.0
 40
18.0
 40
19.0
 40
19.0
 40
19.0
 40
20.0
 40
20.0
 40
20.0
 40
21.0
 40
21.0
 40
21.0
 40
22.0
 40
22.0
 40
22.0
 40
23.0
 40
23.0
 40
23.0
 40
24.0
 40
24.0
 40
24.0
 40
25.0
 40
25.0
 40
25.0
 40
26.0
 40
26.0
 40
26.0
 40
27.0
 40
27.0
 40
27.0
 40
28.0
 40
28.0
 40
28.0
 40
29.0
 40
29.0
 40
29.0
 40
30.0
 40
30.0
 40
30.0
 40
31.0
 40
31.0
 40
31.0
 40
32.0
 40
32.0
 40
32.0
 40
33.0
 40
33.0
 40
33.0
 40
34.0
 40
34.0
 40
34.0
 40
35.0
 40
35.0
 40
35.0
 40
36.0
 40
36.0
 40
36.0
 40
37.0
 40
37.0
 40
37.0
 40
38.0
 40
38.0
 40
38.0
 40
39.0
 40
39.0
 40
39.0
 40
40.0
 40
40.0
 40
40.0
 40
41.0
 40
41.0
 40
41.0
 40
42.0
 40
42.0
 40
42.0
 40
43.0
 40
43.0
 40
43.0
 40
44.0
 40
44.0
 40
44.0
 40
45.0
 40
45.0
 40
45.0
 40
46.0
 40
46.0
 40
46.0
 40
47.0
 40
47.0
 40
47.0
 40
48.0
 40
48.0
 40
48.0
 40
49.0
 40
49.0
 40
49.0
 40
50.0
 40
50.0
 40
50.0
 40
51.0
 40
51.0
 40
51.0
 40
52.0
 40
52.0
 40
52.0
 40
53.0
 40
53.0
 40
53.0
 40
54.0
 40
54.0
 40
54.0
 40
55.0
 40
55.0
 40
55.0
 40
56.0
 40
56.0
 40
56.0
 40
57.0
 40
57.0
 40
57.0
 40
58.0
 40
58.0
 40
58.0
 40
59.0
 40
59.0
 40
59.0
 40
60.0
 40
60.0
 40
60.0
 40
61.0
 40
61.0
 40
61.0
 40
62.0
 40
62.0
 40
62.0
 40
63.0
 40
63.0
 40
63.0
 40
64.0
 40
64.0
 40
64.0
 40
65.0
 40
65.0
 40
65.0
 40
66.0
 40
66.0
 40
66.0
 40
67.0
 40
67.0
 40
67.0
 40
68.0
 40
68.0
 40
68.0
 40
69.0
 40
69.0
 40
69.0
 40
70.0
 40
70.0
 40
70.0
 40
71.0
 40
71.0
 40
71.0
 40
72.0
 40
72.0
 40
72.0
 40
73.0
 40
73.0
 40
73.0
 40
74.0
 40
74.0
 40
74.0
 40
75.0
 40
75.0
 40
75.0
 40
76.0
 40
76.0
 40
76.0
 40
77.0
 40
77.0
 40
77.0
 40
78.0
 40
78.0
 40
78.0
 40
79.0
 40
79.0
 40
79.0
 40
80.0
 40
80.0
 40
80.0
 40
81.0
 40
81.0
 40
81.0
 40
82.0
 40
82.0
 40
82.0
 40
83.0
 40
83.0
 40
83.0
 40
84.0
 40
84.0
 40
84.0
 40
85.0
 40
85.0
 40
85.0
 40
86.0
 40
86.0
 40
86.0
 40
87.0
 40
87.0
 40
87.0
 40
88.0
 40
88.0
 40
88.0
 40
89.0
 40
89.0
 40
89.0
 40
90.0
 40
90.0
 40
90.0
 40
91.0
 40
91.0
 40
91.0
 40
92.0
 40
92.0
 40
92.0
 40
93.0
 40
93.0
 40
93.0
 40
94.0
 40
94.0
 40
94.0
 40
95.0
 40
95.0
 40
95.0
 40
96.0
 40
96.0
 40
96.0
 40
97.0
 40
97.0
 40
97.0
 40
98.0
 40
98.0
 40
98.0
 40
99.0
 40
99.0
 40
99.0
 40
100.0
 40
100.0
 40
100.0
 40
101.0
 40
101.0
 40
101.0
 40
102.0
 40
102.0
 40
102.0
 40
103.0
 40
103.0
 40
103.0
 40
104.0
 40
104.0
 40
104.0
 40
105.0
 40
105.0
 40
105.0
 40
106.0
 40
106.0
 40
106.0
 40
107.0
 40
107.0
 40
107.0
 40
108.0
 40
108.0
 40
108.0
 40
109.0
 40
109.0
 40
109.0
 40
110.0
 40
110.0
 40
110.0
 40
111.0
 40
111.0
 40
111.0
 40
112.0
 40
112.0
 40
112.0
 40
113.0
 40
113.0
 40
113.0
 40
114.0
 40
114.0
 40
114.0
 40
115.0
 40
115.0
 40
115.0
 40
116.0
 40
116.0
 40
116.0
 40
117.0
 40
117.0
 40
117.0
 40
118.0
 40
118.0
 40
118.0
 40
119.0
 40
119.0
 40
119.0
 40
119.0
 10
382.9103680005561
 20
-108.9937619752118
 30
0.0
 10
386.4212949517336
 20
-108.3561206735279
 30
0.0
 10
390.7426189218341
 20
-100.9899835179149
 30
0.0
 10
389.1765485874403
 20
-97.87433466396989
 30
0.0
 10
387.9924805976019
 20
-95.51869574475312
 30
0.0
 10
388.388436093755
 20
-94.2005027686413
 30
0.0
 10
389.9841600407086
 20
-92.83681010989231
 30
0.0
 10
393.0903949489071
 20
-90.18223568010973
 30
0.0
 10
391.8846755169345
 20
-85.28955420924504
 30
0.0
 10
395.2929417120744
 20
-82.76823744188424
 30
0.0
 10
395.5109502095403
 20
-82.60695952130841
 30
0.0
 10
394.8042015562964
 20
-81.1956083665401
 30
0.0
 10
394.450232131557
 20
-80.13354182154626
 30
0.0
 10
395.3881574108166
 20
-79.0319772217351
 30
0.0
 10
396.7227472393052
 20
-77.97225308422377
 30
0.0
 10
397.3423330108817
 20
-76.59163178329172
 30
0.0
 10
397.9419640030407
 20
-75.25554154784817
 30
0.0
 10
398.4383771260319
 20
-73.46453045600703
 30
0.0
 10
397.3868007680601
 20
-72.10261676077864
 30
0.0
 10
396.3152949539959
 20
-70.71485428244051
 30
0.0
 10
395.1189451519526
 20
-69.41298851956378
 30
0.0
 10
392.8306789365932
 20
-70.31375815148859
 30
0.0
 10
391.7172883444117
 20
-70.75205424559282
 30
0.0
 10
389.9960873263755
 20
-71.50636010156016
 30
0.0
 10
389.403394925029
 20
-68.78031692024132
 30
0.0
 10
388.8541067012472
 20
-66.25386584891255
 30
0.0
 10
386.2482353546048
 20
-65.35151984006036
 30
0.0
 10
383.7492790824537
 20
-65.88700685218924
 30
0.0
 10
376.8669313727514
 20
-67.3617992647433
 30
0.0
 10
371.8573194527
 20
-62.48579953365161
 30
0.0
 10
365.9127197589881
 20
-60.81881575258576
 30
0.0
 10
363.477476970357
 20
-60.13593433233719
 30
0.0
 10
363.5959901273022
 20
-57.79788879256245
 30
0.0
 10
363.8730019699995
 20
-55.89387236677491
 30
0.0
 10
364.4908910788592
 20
-51.64710659375476
 30
0.0
 10
362.1159684483147
 20
-49.3504773506005
 30
0.0
 10
358.8372817027668
 20
-47.60595355103743
 30
0.0
 10
355.9582983053427
 20
-46.07408869671723
 30
0.0
 10
353.5937329143692
 20
-46.67112721356833
 30
0.0
 10
350.8323510342222
 20
-48.65104080719966
 30
0.0
 10
349.1118843925861
 20
-49.88460956488811
 30
0.0
 10
346.9631243698782
 20
-50.82284188945311
 30
0.0
 10
345.0345000038642
 20
-52.10743714527069
 30
0.0
 10
339.069540357549
 20
-48.47623073528991
 30
0.0
 10
332.9843962148963
 20
-55.1177694595598
 30
0.0
 10
326.8531382989956
 20
-51.9018402420457
 30
0.0
 10
326.6556163707537
 20
-50.90813401055051
 30
0.0
 10
326.1606213539141
 20
-49.77353196899163
 30
0.0
 10
326.8539486453679
 20
-48.39596212861758
 30
0.0
 10
328.3238156713779
 20
-45.47554344208018
 30
0.0
 10
326.5067405481723
 20
-44.39484526135517
 30
0.0
 10
324.0242191133838
 20
-43.36913351357097
 30
0.0
 10
321.4200444294581
 20
-42.29316446362779
 30
0.0
 10
318.6665634264403
 20
-43.0726733579388
 30
0.0
 10
316.1055143635142
 20
-42.17308126058632
 30
0.0
 10
315.4353072669948
 20
-38.61652484473557
 30
0.0
 10
314.0165173857621
 20
-35.44546855758639
 30
0.0
 10
311.1345458360904
 20
-33.06584211958405
 30
0.0
 10
308.9409128830181
 20
-31.2545755338515
 30
0.0
 10
309.1310657239381
 20
-29.20278168466702
 30
0.0
 10
310.2744644552174
 20
-26.83017930369616
 30
0.0
 10
313.2255433564493
 20
-20.70663392270219
 30
0.0
 10
310.1098375250249
 20
-14.27549878511963
 30
0.0
 10
303.6649755630546
 20
-12.94502399680302
 30
0.0
 10
300.9879963222446
 20
-12.39238913746618
 30
0.0
 10
298.8419712185428
 20
-14.29958759720166
 30
0.0
 10
299.5743723991349
 20
-16.86991607571537
 30
0.0
 10
300.2401732372551
 20
-19.20639473480948
 30
0.0
 10
299.6047603880954
 20
-20.83835161047532
 30
0.0
 10
297.8636299139661
 20
-22.28887953038607
 30
0.0
 10
297.2650371780965
 20
-22.7875701698411
 30
0.0
 10
296.5682405912365
 20
-23.29258056137516
 30
0.0
 10
296.2256919856816
 20
-23.95473800623583
 30
0.0
 10
293.5637294760832
 20
-29.10068753800696
 30
0.0
 10
288.7952462484314
 20
-28.16022676091838
 30
0.0
 10
284.604818540778
 20
-27.51159513656056
 30
0.0
 10
281.9483005458676
 20
-27.10039658198688
 30
0.0
 10
279.3399981601077
 20
-26.83648006328231
 30
0.0
 10
276.6972560535266
 20
-26.88077372260752
 30
0.0
 10
274.5512309498255
 20
-26.91674075641589
 30
0.0
 10
273.2641730007358
 20
-26.3018208073109
 30
0.0
 10
273.3890676353626
 20
-23.76223959241898
 30
0.0
 10
274.3356028448279
 20
-23.36920102666459
 30
0.0
 10
274.9386018390967
 20
-22.10340517360069
 30
0.0
 10
276.2801049350743
 20
-22.29197214134585
 30
0.0
 10
279.5256940959799
 20
-22.74818606998237
 30
0.0
 10
281.3758414805036
 20
-21.61065443636284
 30
0.0
 10
281.7075010566817
 20
-18.13430648428977
 30
0.0
 10
282.098113331442
 20
-14.04046826571267
 30
0.0
 10
281.0956135756414
 20
-11.94664165523576
 30
0.0
 10
277.5264429789569
 20
-10.24819126987235
 30
0.0
 10
273.8345302301965
 20
-8.491339759579631
 30
0.0
 10
271.0047753748888
 20
-9.110292448052771
 30
0.0
 10
268.4085522147408
 20
-12.33062554990429
 30
0.0
 10
267.1073385274603
 20
-13.94463531094434
 30
0.0
 10
265.6592748835294
 20
-15.51138620967399
 30
0.0
 10
264.7122585309055
 20
-17.32629618866639
 30
0.0
 10
262.0385966455574
 20
-22.45017011262404
 30
0.0
 10
257.4654575402722
 20
-23.91847817149223
 30
0.0
 10
252.2184647797926
 20
-24.36363688643649
 30
0.0
 10
247.9773397772233
 20
-24.72345599905049
 30
0.0
 10
246.3085327168197
 20
-23.08678265426495
 30
0.0
 10
246.8240649495311
 20
-18.96104179540233
 30
0.0
 10
247.3275179566313
 20
-14.93183028272171
 30
0.0
 10
245.9903451490809
 20
-13.91244540920146
 30
0.0
 10
241.8456766881368
 20
-13.89369111361878
 30
0.0
 10
237.6647452270328
 20
-13.87477379913696
 30
0.0
 10
234.600496390248
 20
-16.11793680015299
 30
0.0
 10
231.5279921497954
 20
-18.21215513079974
 30
0.0
 10
228.6963127218535
 20
-20.14220393379642
 30
0.0
 10
228.43935695187
 20
-26.22816158823746
 30
0.0
 10
230.6539576173245
 20
-28.9095565836932
 30
0.0
 10
231.2738979154392
 20
-29.66016523433678
 30
0.0
 10
232.1164049093634
 20
-30.23322256323338
 30
0.0
 10
232.7006139971253
 20
-31.00585617504255
 30
0.0
 10
234.4635731766577
 20
-33.33743160550124
 30
0.0
 10
233.5059716745461
 20
-36.41979294987281
 30
0.0
 10
230.6333950781284
 20
-36.70398395496199
 30
0.0
 10
227.503508185189
 20
-37.01363439705198
 30
0.0
 10
223.9277282009055
 20
-37.6384905854639
 30
0.0
 10
221.5640997729246
 20
-34.68803843650424
 30
0.0
 10
219.6862233484741
 20
-32.34391846435253
 30
0.0
 10
217.3019817346485
 20
-32.58635130794546
 30
0.0
 10
214.8776659603816
 20
-32.67295074565128
 30
0.0
 10
212.5617973217165
 20
-32.75567571476471
 30
0.0
 10
210.7699948759962
 20
-33.56917484089428
 30
0.0
 10
211.1565807422195
 20
-36.38484359715299
 30
0.0
 10
211.4181833421815
 20
-38.2901546778865
 30
0.0
 10
210.257020299022
 20
-39.3765664336192
 30
0.0
 10
209.0770546876934
 20
-40.54446548099833
 30
0.0
 10
204.7678605898527
 20
-44.80958749859961
 30
0.0
 10
200.3830383844875
 20
-49.00724501529378
 30
0.0
 10
196.2575776648983
 20
-53.4449359906191
 30
0.0
 10
194.4421105727751
 20
-55.39780743949117
 30
0.0
 10
192.5039519752247
 20
-56.11089325459989
 30
0.0
 10
189.9819134931259
 20
-55.90117814578749
 30
0.0
 10
187.3904764412393
 20
-55.68570198073487
 30
0.0
 10
185.5112705422718
 20
-56.37401525401003
 30
0.0
 10
183.6390032341171
 20
-58.69381533874652
 30
0.0
 10
179.9903680463014
 20
-63.21459214055423
 30
0.0
 10
175.0042055243977
 20
-64.8083155449017
 30
0.0
 10
169.2328426910838
 20
-62.74782629929299
 30
0.0
 10
168.7202859489578
 20
-62.56483995910371
 30
0.0
 10
168.1052710373875
 20
-62.45101161712324
 30
0.0
 10
167.5828255371874
 20
-62.5478226852857
 30
0.0
 10
163.1978134068908
 20
-63.3604354950705
 30
0.0
 10
161.0857342191911
 20
-61.26728549216054
 30
0.0
 10
160.526683853956
 20
-57.1314232171836
 30
0.0
 10
160.1990000396671
 20
-54.70731636034066
 30
0.0
 10
159.1512981502883
 20
-53.2031710497002
 30
0.0
 10
156.3741018542196
 20
-53.35506351326885
 30
0.0
 10
154.9707085540601
 20
-53.43182167413346
 30
0.0
 10
153.8302346667178
 20
-52.35838495660354
 30
0.0
 10
152.5938993358678
 20
-51.8575085977344
 30
0.0
 10
147.4925916591287
 20
-49.79081513771292
 30
0.0
 10
142.6722082786655
 20
-46.48521919485717
 30
0.0
 10
136.8804854927484
 20
-46.83027164408596
 30
0.0
 10
133.4968588919906
 20
-47.03185480043601
 30
0.0
 10
130.564240694052
 20
-48.30050269288036
 30
0.0
 10
129.3512914530393
 20
-52.13485913989181
 30
0.0
 10
128.2181993146818
 20
-55.7167547069537
 30
0.0
 10
120.5186046268779
 20
-57.55381626373177
 30
0.0
 10
117.4070264972871
 20
-55.01910345790422
 30
0.0
 10
114.985534273661
 20
-53.04653046285619
 30
0.0
 10
113.0095046448689
 20
-50.94396334878403
 30
0.0
 10
113.0341189159267
 20
-47.17279809173255
 30
0.0
 10
113.051250144703
 20
-44.55165994605244
 30
0.0
 10
112.0720605087675
 20
-42.16450931536711
 30
0.0
 10
113.018279176681
 20
-39.22381930786079
 30
0.0
 10
114.021006842399
 20
-36.10756585955207
 30
0.0
 10
108.7959567422811
 20
-33.6603609656837
 30
0.0
 10
104.5333702225084
 20
-35.39642044415508
 30
0.0
 10
96.53443485095232
 20
-38.65421544729295
 30
0.0
 10
88.70201299723678
 20
-42.14866007987496
 30
0.0
 10
81.19500852029981
 20
-46.61635286346752
 30
0.0
 10
63.90322986891965
 20
-56.90732446026323
 30
0.0
 10
48.15660765161459
 20
-69.6696340788268
 30
0.0
 10
29.89961309109747
 20
-78.43073186766259
 30
0.0
 10
27.19545084453795
 20
-79.7284066203951
 30
0.0
 10
24.73878294098254
 20
-81.856034329113
 30
0.0
 10
21.95741620997049
 20
-83.28518144991627
 30
0.0
 10
19.11964968799004
 20
-84.74331744602159
 30
0.0
 10
17.81729486841591
 20
-86.9952700145734
 30
0.0
 10
18.17710369342963
 20
-90.32754091398806
 30
0.0
 10
18.75016497909544
 20
-95.63477153175039
 30
0.0
 10
19.2628752438741
 20
-100.7223223126541
 30
0.0
 10
23.95428218640147
 20
-104.5163070501656
 30
0.0
 10
27.2351483205328
 20
-107.1695709979244
 30
0.0
 10
26.89076377397804
 20
-109.3282451020303
 30
0.0
 10
24.05112807413497
 20
-112.7502112155263
 30
0.0
 10
22.99587192062525
 20
-114.0218725835425
 30
0.0
 10
22.32155294934945
 20
-115.4274563512396
 30
0.0
 10
23.1406137105417
 20
-117.3150316088331
 30
0.0
 10
24.22312409165035
 20
-119.8097588858536
 30
0.0
 10
23.74436132558046
 20
-122.5813840506129
 30
0.0
 10
23.51844720286171
 20
-125.1668194746799
 30
0.0
 10
23.25478075198258
 20
-128.1842961317901
 30
0.0
 10
24.7600561159625
 20
-130.333524635994
 30
0.0
 10
26.11162523328245
 20
-132.6352881831165
 30
0.0
 10
27.19083566871471
 20
-134.4732297254083
 30
0.0
 10
29.0682182883445
 20
-133.8812463771376
 30
0.0
 10
30.66206989202039
 20
-133.8573158358313
 30
0.0
 10
33.26054841072392
 20
-133.8183179166655
 30
0.0
 10
35.49555651001485
 20
-134.0252727831472
 30
0.0
 10
36.93556417145589
 20
-136.7658262291947
 30
0.0
 10
38.95186421645156
 20
-140.6031455051298
 30
0.0
 10
41.44632876398419
 20
-144.1887129541909
 30
0.0
 10
43.47419523727776
 20
-148.0206510237477
 30
0.0
 10
44.70626358801132
 20
-150.3488394596037
 30
0.0
 10
46.02740040055394
 20
-151.8978418735312
 30
0.0
 10
48.90499101514997
 20
-152.2495701840847
 30
0.0
 10
51.20287376284904
 20
-152.5304564953744
 30
0.0
 10
53.18407568059559
 20
-154.1002620200777
 30
0.0
 10
55.16395128924083
 20
-155.4287615891119
 30
0.0
 10
57.96774657189626
 20
-157.3100819856444
 30
0.0
 10
60.50514998091282
 20
-156.655803260005
 30
0.0
 10
61.70535525905528
 20
-153.3606563537698
 30
0.0
 10
63.53906147538567
 20
-148.3262149144056
 30
0.0
 10
67.73242668863917
 20
-147.2036699405497
 30
0.0
 10
72.03055449383316
 20
-145.2385420027971
 30
0.0
 10
75.51262551716036
 20
-143.6465279228285
 30
0.0
 10
79.46895808569217
 20
-144.8931445232768
 30
0.0
 10
82.62213610600314
 20
-142.3042271421415
 30
0.0
 10
83.73952145256679
 20
-141.3868137554297
 30
0.0
 10
85.53662280386212
 20
-142.5023694918249
 30
0.0
 10
86.2810209092622
 20
-144.2505651733871
 30
0.0
 10
87.2982904938636
 20
-146.6395928954742
 30
0.0
 10
88.55791695208546
 20
-148.9264283430197
 30
0.0
 10
89.55149023612886
 20
-151.3242559202431
 30
0.0
 10
90.39477592227063
 20
-153.3593901875632
 30
0.0
 10
90.99655939698107
 20
-155.2358485058621
 30
0.0
 10
93.70329987447901
 20
-155.7859217526919
 30
0.0
 10
95.48932860229719
 20
-156.1489062808228
 30
0.0
 10
96.6311699491426
 20
-158.1511075651073
 30
0.0
 10
96.1397012051889
 20
-160.0058384712996
 30
0.0
 10
95.29244608798933
 20
-163.2032246847168
 30
0.0
 10
97.57151993668829
 20
-166.0731676554248
 30
0.0
 10
97.22836990218514
 20
-168.708692614628
 30
0.0
 10
96.44972200089431
 20
-174.6888969020716
 30
0.0
 10
100.8175649174282
 20
-179.4600897254053
 30
0.0
 10
100.1097590154014
 20
-185.3540174475257
 30
0.0
 10
99.82295337709537
 20
-187.7422348232401
 30
0.0
 10
108.578328094677
 20
-193.6576240625639
 30
0.0
 10
111.5668222073163
 20
-193.5982155441466
 30
0.0
 10
115.6951697858567
 20
-193.5161299889672
 30
0.0
 10
120.2472145621383
 20
-194.893009768759
 30
0.0
 10
123.2318468678469
 20
-190.3446242128148
 30
0.0
 10
124.0258217110695
 20
-189.1346504623876
 30
0.0
 10
125.3974215777794
 20
-190.3984742615847
 30
0.0
 10
126.5038102708377
 20
-190.3167432329436
 30
0.0
 10
127.1480482984584
 20
-195.2595902089169
 30
0.0
 10
127.1584561846772
 20
-195.460416830958
 30
0.0
 10
131.8934746394859
 20
-195.2151097900763
 30
0.0
 10
134.6194545124944
 20
-195.0738816113833
 30
0.0
 10
136.4472667251328
 20
-195.8749343237012
 30
0.0
 10
137.705810611248
 20
-198.1968172518474
 30
0.0
 10
138.8006138835156
 20
-200.2166435697293
 30
0.0
 10
140.4184324307762
 20
-201.8357282831965
 30
0.0
 10
141.7923747049682
 20
-203.638103216742
 30
0.0
 10
144.4537547781119
 20
-207.1293919300541
 30
0.0
 10
143.5512694909768
 20
-211.5329660569405
 30
0.0
 10
142.8497121191799
 20
-215.1591141329255
 30
0.0
 10
142.0128902115234
 20
-219.4844645115631
 30
0.0
 10
143.4524705418698
 20
-222.9981010584224
 30
0.0
 10
144.3270748491337
 20
-226.8285577135175
 30
0.0
 10
144.7983039262735
 20
-228.8923579837571
 30
0.0
 10
145.8760392780748
 20
-230.0634097849907
 30
0.0
 10
148.077826341518
 20
-230.1586001604086
 30
0.0
 10
150.4021403087816
 20
-230.2590831105709
 30
0.0
 10
152.0836976628862
 20
-228.8409769590897
 30
0.0
 10
152.9345360304506
 20
-227.1767787436789
 30
0.0
 10
153.8451880896187
 20
-225.3955614474461
 30
0.0
 10
154.109323021994
 20
-222.8011109199877
 30
0.0
 10
156.3764695850261
 20
-222.800199280319
 30
0.0
 10
160.1246380983489
 20
-222.7986798808709
 30
0.0
 10
164.3062659508663
 20
-221.3036921173204
 30
0.0
 10
167.5450557992422
 20
-224.3707011964357
 30
0.0
 10
170.4099847517716
 20
-227.083639557515
 30
0.0
 10
174.1267396815066
 20
-227.9292359969842
 30
0.0
 10
176.9843248700373
 20
-226.1852946338759
 30
0.0
 10
179.8992673877306
 20
-224.4063311134913
 30
0.0
 10
183.0410815663369
 20
-224.8072499811746
 30
0.0
 10
185.9936038970444
 20
-223.2118045907862
 30
0.0
 10
188.6971093198843
 20
-226.1787612162499
 30
0.0
 10
191.0533813222044
 20
-229.3917086123474
 30
0.0
 10
194.5250697826368
 20
-231.4258552700259
 30
0.0
 10
195.4937502390569
 20
-231.9934522571563
 30
0.0
 10
195.8731569428883
 20
-233.1249490260936
 30
0.0
 10
196.2662382417519
 20
-234.272323519262
 30
0.0
 10
197.5354559089895
 20
-237.9773031032751
 30
0.0
 10
199.1988944246766
 20
-238.7040065359364
 30
0.0
 10
202.391190649943
 20
-236.7196708568286
 30
0.0
 10
204.5806705778574
 20
-235.3587194479172
 30
0.0
 10
205.9199832062965
 20
-236.1307009841298
 30
0.0
 10
207.4178958137846
 20
-237.6026698460424
 30
0.0
 10
209.3219438937271
 20
-239.4737342963009
 30
0.0
 10
207.9702861447726
 20
-241.2145608905408
 30
0.0
 10
206.926800588862
 20
-242.5377805464934
 30
0.0
 10
205.1134859792902
 20
-244.8372396711195
 30
0.0
 10
202.4016618444725
 20
-246.1383773884272
 30
0.0
 10
201.0338604763828
 20
-249.1605135371782
 30
0.0
 10
199.3952514800086
 20
-252.7809891885573
 30
0.0
 10
199.6135638573642
 20
-256.3490202356559
 30
0.0
 10
199.5233241918142
 20
-260.223412858123
 30
0.0
 10
200.3228321813598
 20
-260.423239208861
 30
0.0
 10
201.1696821253732
 20
-260.8178272455104
 30
0.0
 10
202.0150000082768
 20
-260.8145858600214
 30
0.0
 10
205.7175612148349
 20
-260.8003541518584
 30
0.0
 10
206.8015640893593
 20
-263.0890508637278
 30
0.0
 10
206.9931603597539
 20
-266.2399054690499
 30
0.0
 10
207.0909716992201
 20
-267.8485443113119
 30
0.0
 10
206.9271804387242
 20
-269.3148154252949
 30
0.0
 10
208.1279618224906
 20
-270.8881535537149
 30
0.0
 10
209.5946507713217
 20
-272.8098646522406
 30
0.0
 10
209.0648868304472
 20
-274.9939000654663
 30
0.0
 10
206.5792379651285
 20
-276.1978975113973
 30
0.0
 10
206.3009472945624
 20
-276.3326935657607
 30
0.0
 10
206.0230238121964
 20
-276.4687051396821
 30
0.0
 10
205.7496205431881
 20
-276.6130734105678
 30
0.0
 10
199.1319395556674
 20
-280.1071350278719
 30
0.0
 10
198.6968848470526
 20
-280.9196085593739
 30
0.0
 10
199.5257299076068
 20
-288.2294139804515
 30
0.0
 10
199.8980334190188
 20
-291.5129628042337
 30
0.0
 10
205.2078153616876
 20
-295.6514017274411
 30
0.0
 10
208.6271478494738
 20
-294.7660476690826
 30
0.0
 10
211.6778866928336
 20
-293.9761372193836
 30
0.0
 10
214.7996194754018
 20
-294.509497072285
 30
0.0
 10
217.7872779183448
 20
-293.6439711767233
 30
0.0
 10
218.297618869609
 20
-293.4961082871071
 30
0.0
 10
219.1090288214972
 20
-293.3838499912229
 30
0.0
 10
219.4070083765771
 20
-293.6596209910379
 30
0.0
 10
222.8726825475278
 20
-296.8673011357153
 30
0.0
 10
227.1271529419156
 20
-295.322122543732
 30
0.0
 10
231.0561932978627
 20
-295.7150898876369
 30
0.0
 10
232.0531219223538
 20
-295.8148131380754
 30
0.0
 10
232.9676990967625
 20
-295.4410155505392
 30
0.0
 10
234.0328994031176
 20
-296.452960906242
 30
0.0
 10
236.9671129704768
 20
-299.2403498402738
 30
0.0
 10
242.4147171047431
 20
-298.378571796684
 30
0.0
 10
245.6423520288373
 20
-295.7756886022886
 30
0.0
 10
250.1158945003053
 20
-292.1680771995694
 30
0.0
 10
254.7536840521024
 20
-288.4964737567644
 30
0.0
 10
260.9316128543812
 20
-288.2565859072471
 30
0.0
 10
262.953578993152
 20
-288.1780836024327
 30
0.0
 10
263.8329567470151
 20
-287.062692467645
 30
0.0
 10
264.0176903965694
 20
-285.322524279833
 30
0.0
 10
264.4418560758071
 20
-281.3272887546004
 30
0.0
 10
265.7720649692201
 20
-277.4189628777951
 30
0.0
 10
264.7316308738679
 20
-273.2762696361328
 30
0.0
 10
264.226430557403
 20
-271.2646354136086
 30
0.0
 10
264.3851318297481
 20
-268.5460499512477
 30
0.0
 10
266.7685377738774
 20
-268.0372537227552
 30
0.0
 10
269.9127070216277
 20
-267.3660843399185
 30
0.0
 10
271.0617022075414
 20
-265.018055079604
 30
0.0
 10
272.5139188766301
 20
-262.8975558866297
 30
0.0
 10
277.0271429970152
 20
-256.3073127208079
 30
0.0
 10
281.1800162149784
 20
-256.0942675948721
 30
0.0
 10
286.2392871736561
 20
-260.0163946833303
 30
0.0
  0
SPLINE
  5
46
330
41
100
AcDbEntity
  8
Laag 1
 62
     7
370
    70
100
AcDbSpline
210
0.0
220
0.0
230
1.0
 70
     8
 71
     3
 72
   116
 73
   112
 74
     0
 42
0.0000000001
 43
0.0000000001
 12
1.0
 22
0.0
 32
0.0
 13
1.0
 23
0.0
 33
0.0
 40
0.0
 40
0.0
 40
0.0
 40
0.0
 40
1.0
 40
1.0
 40
1.0
 40
2.0
 40
2.0
 40
2.0
 40
3.0
 40
3.0
 40
3.0
 40
4.0
 40
4.0
 40
4.0
 40
5.0
 40
5.0
 40
5.0
 40
6.0
 40
6.0
 40
6.0
 40
7.0
 40
7.0
 40
7.0
 40
8.0
 40
8.0
 40
8.0
 40
9.0
 40
9.0
 40
9.0
 40
10.0
 40
10.0
 40
10.0
 40
11.0
 40
11.0
 40
11.0
 40
12.0
 40
12.0
 40
12.0
 40
13.0
 40
13.0
 40
13.0
 40
14.0
 40
14.0
 40
14.0
 40
15.0
 40
15.0
 40
15.0
 40
16.0
 40
16.0
 40
16.0
 40
17.0
 40
17.0
 40
17.0
 40
18.0
 40
18.0
 40
18.0
 40
19.0
 40
19.0
 40
19.0
 40
20.0
 40
20.0
 40
20.0
 40
21.0
 40
21.0
 40
21.0
 40
22.0
 40
22.0
 40
22.0
 40
23.0
 40
23.0
 40
23.0
 40
24.0
 40
24.0
 40
24.0
 40
25.0
 40
25.0
 40
25.0
 40
26.0
 40
26.0
 40
26.0
 40
27.0
 40
27.0
 40
27.0
 40
28.0
 40
28.0
 40
28.0
 40
29.0
 40
29.0
 40
29.0
 40
30.0
 40
30.0
 40
30.0
 40
31.0
 40
31.0
 40
31.0
 40
32.0
 40
32.0
 40
32.0
 40
33.0
 40
33.0
 40
33.0
 40
34.0
 40
34.0
 40
34.0
 40
35.0
 40
35.0
 40
35.0
 40
36.0
 40
36.0
 40
36.0
 40
37.0
 40
37.0
 40
37.0
 40
37.0
 10
321.5055612950573
 20
-199.0264853204363
 30
0.0
 10
320.089734242748
 20
-198.8583637715133
 30
0.0
 10
317.7437561716887
 20
-200.6996986392392
 30
0.0
 10
317.7984292284931
 20
-197.3673391081899
 30
0.0
 10
317.8114200937737
 20
-196.5755040858569
 30
0.0
 10
317.5119717858936
 20
-195.9545255314531
 30
0.0
 10
316.9299151806831
 20
-195.7391126747105
 30
0.0
 10
313.2671242546772
 20
-194.3835424721771
 30
0.0
 10
311.5690181082505
 20
-191.1224427752398
 30
0.0
 10
309.5667535156563
 20
-188.1587908435759
 30
0.0
 10
307.8200772335418
 20
-188.3395360695791
 30
0.0
 10
307.3711453433016
 20
-190.14696300629
 30
0.0
 10
306.1234398399159
 20
-190.652150661093
 30
0.0
 10
305.27657723424
 20
-190.9950158081997
 30
0.0
 10
303.8310459227224
 20
-191.2261797725533
 30
0.0
 10
304.0306443635432
 20
-188.7274260869954
 30
0.0
 10
304.40003569268
 20
-188.17590941069
 30
0.0
 10
305.232514650248
 20
-186.9329393689169
 30
0.0
 10
306.1384312478025
 20
-185.5803446569697
 30
0.0
 10
303.9495084330196
 20
-182.2872109550033
 30
0.0
 10
303.0495174933117
 20
-178.2215639270175
 30
0.0
 10
299.651811124335
 20
-175.2234216278832
 30
0.0
 10
296.4253157498267
 20
-172.3763582805302
 30
0.0
 10
297.9151882019021
 20
-167.6148516286777
 30
0.0
 10
298.9176373110547
 20
-164.2439373366348
 30
0.0
 10
300.4757054750216
 20
-159.004668190016
 30
0.0
 10
300.4097382156534
 20
-153.4133921762782
 30
0.0
 10
302.7203902495469
 20
-148.3565649183797
 30
0.0
 10
303.1207520040994
 20
-147.480466534992
 30
0.0
 10
302.0151609957512
 20
-145.916257464922
 30
0.0
 10
301.5261169600832
 20
-144.4296263983358
 30
0.0
 10
300.2075061491228
 20
-144.2334086212865
 30
0.0
 10
298.6406761150052
 20
-143.7245744078083
 30
0.0
 10
297.4827924423209
 20
-144.7228071834924
 30
0.0
 10
295.5436588967917
 20
-146.3945390878333
 30
0.0
 10
293.3267791321644
 20
-146.0194246874426
 30
0.0
 10
291.2233731829807
 20
-145.852518658078
 30
0.0
 10
288.9869184887988
 20
-145.6750528025497
 30
0.0
 10
286.8596073216327
 20
-145.1125458035704
 30
0.0
 10
284.5614650098611
 20
-145.8638888306138
 30
0.0
 10
282.0905163342022
 20
-146.6717281937996
 30
0.0
 10
280.6086207292281
 20
-144.19195433968
 30
0.0
 10
279.7600108141876
 20
-142.9100243637275
 30
0.0
 10
277.0209641059257
 20
-138.7722944935953
 30
0.0
 10
273.1319599254342
 20
-140.1390829287197
 30
0.0
 10
269.6447356056461
 20
-140.1949588434204
 30
0.0
 10
265.0057052109661
 20
-140.2692827997525
 30
0.0
 10
263.0411470480058
 20
-144.0791136073407
 30
0.0
 10
261.4386617735083
 20
-147.6213908337953
 30
0.0
 10
260.3308169893119
 20
-150.070282894134
 30
0.0
 10
259.1401902585231
 20
-150.1280200731588
 30
0.0
 10
256.7663818542403
 20
-149.7488032942582
 30
0.0
 10
250.0137148874263
 20
-148.6700423478292
 30
0.0
 10
243.1142739339329
 20
-148.8456596006959
 30
0.0
 10
236.4930096960476
 20
-150.2621450594322
 30
0.0
 10
233.0072794523834
 20
-151.0078409851939
 30
0.0
 10
230.033612146024
 20
-153.8740740889163
 30
0.0
 10
226.0212327303534
 20
-151.8426243652579
 30
0.0
 10
225.4736158459647
 20
-151.5653592893191
 30
0.0
 10
224.1228950600031
 20
-152.8025556131899
 30
0.0
 10
223.1790441228958
 20
-153.394399683178
 30
0.0
 10
221.1608258360973
 20
-154.6599201450919
 30
0.0
 10
220.4900616264468
 20
-157.5371055865021
 30
0.0
 10
217.3679489940164
 20
-157.6078969391176
 30
0.0
 10
213.2292315142433
 20
-157.7017451783567
 30
0.0
 10
209.3332887429389
 20
-157.1022154794938
 30
0.0
 10
205.7651564025439
 20
-155.0200304759337
 30
0.0
 10
203.7665383686245
 20
-153.853739459637
 30
0.0
 10
202.3015967291585
 20
-154.0500838533069
 30
0.0
 10
200.2923175757789
 20
-155.3657191736812
 30
0.0
 10
197.0062997278941
 20
-157.5173407320158
 30
0.0
 10
193.2950526211579
 20
-158.6753003746726
 30
0.0
 10
189.1483962792689
 20
-158.4622552487365
 30
0.0
 10
186.790452937556
 20
-158.3411084660816
 30
0.0
 10
184.4177714211973
 20
-157.8767040247957
 30
0.0
 10
181.9034185679733
 20
-159.7641906507546
 30
0.0
 10
180.510445815695
 20
-160.8098540125409
 30
0.0
 10
176.8981116130247
 20
-159.6746093916323
 30
0.0
 10
174.6948557967817
 20
-158.6465330784567
 30
0.0
 10
172.5043122892538
 20
-157.6243444381423
 30
0.0
 10
170.9248332547315
 20
-155.2255419129398
 30
0.0
 10
171.8349028774445
 20
-152.5951069418875
 30
0.0
 10
172.3841784395641
 20
-151.0075117819802
 30
0.0
 10
171.3590396319883
 20
-150.0788168543671
 30
0.0
 10
171.386857303549
 20
-148.8523069732809
 30
0.0
 10
170.4462983985791
 20
-147.9739548140453
 30
0.0
 10
169.1929964405597
 20
-148.1765034221277
 30
0.0
 10
168.4370698918478
 20
-148.4802566951103
 30
0.0
 10
163.9083605587552
 20
-150.3000414139981
 30
0.0
 10
160.3470528542144
 20
-147.9589507444961
 30
0.0
 10
156.8227298645701
 20
-145.8666997195928
 30
0.0
 10
154.4482124072118
 20
-144.4570262350483
 30
0.0
 10
151.1613209046444
 20
-145.9190430305768
 30
0.0
 10
149.1659569178763
 20
-143.1277163196419
 30
0.0
 10
148.8789550238081
 20
-142.7262276771656
 30
0.0
 10
146.4618563969191
 20
-143.8631816224534
 30
0.0
 10
146.0146718160442
 20
-145.5076276450407
 30
0.0
 10
145.1585155504115
 20
-148.6559625796109
 30
0.0
 10
142.6858828736976
 20
-150.7607739732845
 30
0.0
 10
140.8745814683944
 20
-153.6237530298557
 30
0.0
 10
138.950996443883
 20
-151.7735423370213
 30
0.0
 10
136.4120673045872
 20
-151.3557834587895
 30
0.0
 10
133.9609467917247
 20
-150.9680580429801
 30
0.0
 10
132.0368806240546
 20
-150.6636970102184
 30
0.0
 10
130.9107777231582
 20
-149.9623422250148
 30
0.0
 10
131.095600004347
 20
-147.9967331441035
 30
0.0
 10
131.3454272585869
 20
-145.3396960210488
 30
0.0
 10
129.8533263539876
 20
-145.043083925472
 30
0.0
 10
127.7483250353829
 20
-145.0529473602221
 30
0.0
 10
125.8148385911353
 20
-145.0620131102617
 30
0.0
 10
123.8280338879243
 20
-145.4865586393613
 30
0.0
 10
121.9399395021857
 20
-144.6749334392177
 30
0.0
  0
SPLINE
  5
47
330
41
100
AcDbEntity
  8
Laag 1
 62
     7
370
   140
100
AcDbSpline
210
0.0
220
0.0
230
1.0
 70
     8
 71
     3
 72
    65
 73
    61
 74
     0
 42
0.0000000001
 43
0.0000000001
 12
1.0
 22
0.0
 32
0.0
 13
1.0
 23
0.0
 33
0.0
 40
0.0
 40
0.0
 40
0.0
 40
0.0
 40
1.0
 40
1.0
 40
1.0
 40
2.0
 40
2.0
 40
2.0
 40
3.0
 40
3.0
 40
3.0
 40
4.0
 40
4.0
 40
4.0
 40
5.0
 40
5.0
 40
5.0
 40
6.0
 40
6.0
 40
6.0
 40
7.0
 40
7.0
 40
7.0
 40
8.0
 40
8.0
 40
8.0
 40
9.0
 40
9.0
 40
9.0
 40
10.0
 40
10.0
 40
10.0
 40
11.0
 40
11.0
 40
11.0
 40
12.0
 40
12.0
 40
12.0
 40
13.0
 40
13.0
 40
13.0
 40
14.0
 40
14.0
 40
14.0
 40
15.0
 40
15.0
 40
15.0
 40
16.0
 40
16.0
 40
16.0
 40
17.0
 40
17.0
 40
17.0
 40
18.0
 40
18.0
 40
18.0
 40
19.0
 40
19.0
 40
19.0
 40
20.0
 40
20.0
 40
20.0
 40
20.0
 10
436.0172278539605
 20
-182.8454889588523
 30
0.0
 10
438.819000436101
 20
-184.0062215055014
 30
0.0
 10
439.8250961039285
 20
-186.7581198007607
 30
0.0
 10
440.8705442174594
 20
-189.1243691927895
 30
0.0
 10
441.8507594480228
 20
-191.3429456201332
 30
0.0
 10
443.1647360906661
 20
-192.0442370970268
 30
0.0
 10
445.1278508241505
 20
-191.4968607842175
 30
0.0
 10
447.0928394836202
 20
-190.9489780049252
 30
0.0
 10
449.0218183761721
 20
-191.1646314332465
 30
0.0
 10
450.9532789544893
 20
-191.1776729451756
 30
0.0
 10
454.9587704259956
 20
-191.2046676087014
 30
0.0
 10
456.382700942027
 20
-192.556236726022
 30
0.0
 10
456.7314031153471
 20
-196.5397855371663
 30
0.0
 10
456.8338106381432
 20
-197.709849728759
 30
0.0
 10
456.955666473874
 20
-198.7254543047987
 30
0.0
 10
458.0029885133908
 20
-199.4469284710263
 30
0.0
 10
460.9325425891093
 20
-201.4650581261908
 30
0.0
 10
461.880901077912
 20
-204.0042025137419
 30
0.0
 10
460.4207582083693
 20
-206.8711320088777
 30
0.0
 10
459.9256365749096
 20
-207.8432437757177
 30
0.0
 10
459.7325715517148
 20
-208.8950733669303
 30
0.0
 10
459.2230662701472
 20
-209.7977865639828
 30
0.0
 10
457.5685415645551
 20
-212.729037302418
 30
0.0
 10
458.6714229772214
 20
-214.885622232283
 30
0.0
 10
460.8945069562605
 20
-216.8854557857604
 30
0.0
 10
461.6893048075174
 20
-217.6004345193483
 30
0.0
 10
462.3197542851471
 20
-218.5067816134136
 30
0.0
 10
462.9804904584407
 20
-219.3603802233085
 30
0.0
 10
464.6125280522028
 20
-221.4688001906709
 30
0.0
 10
464.9367172477605
 20
-223.8406333756712
 30
0.0
 10
463.3457540857441
 20
-225.9536368647022
 30
0.0
 10
461.6579545322404
 20
-228.1951815470349
 30
0.0
 10
459.1340294624937
 20
-229.1093029016093
 30
0.0
 10
456.3560608050386
 20
-228.2480819711503
 30
0.0
 10
451.878998391517
 20
-226.8601358987125
 30
0.0
 10
450.1399444299666
 20
-227.9605609489371
 30
0.0
 10
450.1543787247231
 20
-232.6330687781224
 30
0.0
 10
450.1627860683352
 20
-235.3590233278065
 30
0.0
 10
449.8103360430438
 20
-237.4502994047311
 30
0.0
 10
446.3923456914367
 20
-237.6561780299373
 30
0.0
 10
443.6389406583917
 20
-237.8220204796878
 30
0.0
 10
442.1878128922403
 20
-240.344856646497
 30
0.0
 10
440.084710822946
 20
-241.6272804272696
 30
0.0
 10
437.295650549521
 20
-243.3280201994061
 30
0.0
 10
437.725792533254
 20
-245.598053621389
 30
0.0
 10
437.6779820972894
 20
-247.9843970711181
 30
0.0
 10
437.6696760469737
 20
-248.3991171504536
 30
0.0
 10
437.8328089010424
 20
-248.9061913929045
 30
0.0
 10
437.6512406670044
 20
-249.2139963977481
 30
0.0
 10
436.5466372682977
 20
-251.0865296008068
 30
0.0
 10
434.9925955128672
 20
-252.7296334872142
 30
0.0
 10
434.7743084588357
 20
-255.0378038353431
 30
0.0
 10
434.596943896604
 20
-256.9128440474901
 30
0.0
 10
435.7522445902266
 20
-258.740529643508
 30
0.0
 10
434.9789715644836
 20
-260.6387913438858
 30
0.0
 10
429.8597096509336
 20
-262.4046373823697
 30
0.0
 10
429.4867730564182
 20
-260.8534065159182
 30
0.0
 10
427.7511124203019
 20
-255.8563549646367
 30
0.0
 10
427.3932938502946
 20
-254.8262274622068
 30
0.0
 10
427.4426996556789
 20
-253.6546438711661
 30
0.0
 10
427.3043836592613
 20
-252.5482425164455
 30
0.0
  0
SPLINE
  5
48
330
41
100
AcDbEntity
  8
Laag 1
 62
     7
370
   140
100
AcDbSpline
210
0.0
220
0.0
230
1.0
 70
     8
 71
     3
 72
    92
 73
    88
 74
     0
 42
0.0000000001
 43
0.0000000001
 12
1.0
 22
0.0
 32
0.0
 13
1.0
 23
0.0
 33
0.0
 40
0.0
 40
0.0
 40
0.0
 40
0.0
 40
1.0
 40
1.0
 40
1.0
 40
2.0
 40
2.0
 40
2.0
 40
3.0
 40
3.0
 40
3.0
 40
4.0
 40
4.0
 40
4.0
 40
5.0
 40
5.0
 40
5.0
 40
6.0
 40
6.0
 40
6.0
 40
7.0
 40
7.0
 40
7.0
 40
8.0
 40
8.0
 40
8.0
 40
9.0
 40
9.0
 40
9.0
 40
10.0
 40
10.0
 40
10.0
 40
11.0
 40
11.0
 40
11.0
 40
12.0
 40
12.0
 40
12.0
 40
13.0
 40
13.0
 40
13.0
 40
14.0
 40
14.0
 40
14.0
 40
15.0
 40
15.0
 40
15.0
 40
16.0
 40
16.0
 40
16.0
 40
17.0
 40
17.0
 40
17.0
 40
18.0
 40
18.0
 40
18.0
 40
19.0
 40
19.0
 40
19.0
 40
20.0
 40
20.0
 40
20.0
 40
21.0
 40
21.0
 40
21.0
 40
22.0
 40
22.0
 40
22.0
 40
23.0
 40
23.0
 40
23.0
 40
24.0
 40
24.0
 40
24.0
 40
25.0
 40
25.0
 40
25.0
 40
26.0
 40
26.0
 40
26.0
 40
27.0
 40
27.0
 40
27.0
 40
28.0
 40
28.0
 40
28.0
 40
29.0
 40
29.0
 40
29.0
 40
29.0
 10
418.5915394645621
 20
-253.79293454426
 30
0.0
 10
416.2936757093562
 20
-254.1866109412408
 30
0.0
 10
414.0546633594368
 20
-254.3743580663669
 30
0.0
 10
413.4905609910369
 20
-257.5049793357064
 30
0.0
 10
413.2670320089095
 20
-258.7455436616867
 30
0.0
 10
411.890633372277
 20
-260.2414430649059
 30
0.0
 10
410.6722776015617
 20
-260.7613055860444
 30
0.0
 10
404.701164387482
 20
-263.3090852271247
 30
0.0
 10
402.4822587569244
 20
-268.0121836318634
 30
0.0
 10
401.9125346105672
 20
-274.1151553947061
 30
0.0
 10
401.6725454677529
 20
-276.6857513508307
 30
0.0
 10
401.1830709355748
 20
-279.4774705732903
 30
0.0
 10
398.6785688554385
 20
-281.1792486017156
 30
0.0
 10
396.6786593319883
 20
-282.5381741446967
 30
0.0
 10
396.5929145564719
 20
-284.0993570775325
 30
0.0
 10
397.7978996120451
 20
-286.1831374505132
 30
0.0
 10
399.2429751037283
 20
-288.6821443693123
 30
0.0
 10
398.4222208452344
 20
-291.6698154739171
 30
0.0
 10
395.742911858604
 20
-292.7185049729371
 30
0.0
 10
390.8322888125911
 20
-294.6405452746764
 30
0.0
 10
389.4513826242623
 20
-299.0771663395573
 30
0.0
 10
387.4099934958812
 20
-302.8602937018463
 30
0.0
 10
387.7516051384431
 20
-304.8242441050272
 30
0.0
 10
389.6253538610598
 20
-304.3525971930392
 30
0.0
 10
390.3425357238473
 20
-305.268389887006
 30
0.0
 10
391.7624145080174
 20
-307.0813626317023
 30
0.0
 10
391.8696587857236
 20
-308.9927671373051
 30
0.0
 10
389.9580010468787
 20
-310.6272864168319
 30
0.0
 10
388.227860895424
 20
-312.106649689392
 30
0.0
 10
386.5048112747261
 20
-318.073407291721
 30
0.0
 10
387.5091343098641
 20
-319.74059365938
 30
0.0
 10
387.9989127219321
 20
-320.5535989806885
 30
0.0
 10
388.7904185410515
 20
-321.6563537767341
 30
0.0
 10
389.5590827218022
 20
-321.7567354335993
 30
0.0
 10
397.0335403963965
 20
-322.7327469923563
 30
0.0
 10
396.9656738877186
 20
-329.325066670757
 30
0.0
 10
399.4687578617033
 20
-334.4088252838715
 30
0.0
 10
404.286672218063
 20
-336.015058410341
 30
0.0
 10
404.286672218063
 20
-336.015058410341
 30
0.0
 10
401.5709989379775
 20
-343.0210092651399
 30
0.0
 10
401.5617052780204
 20
-344.1212823754201
 30
0.0
 10
402.6743868171262
 20
-344.1216622252823
 30
0.0
 10
403.2508216443787
 20
-344.6438798155648
 30
0.0
 10
406.8204227375739
 20
-347.8779215406657
 30
0.0
 10
407.1547919094339
 20
-348.6158432059181
 30
0.0
 10
404.3875350180875
 20
-352.4684577696302
 30
0.0
 10
402.9954105971676
 20
-354.4066290288428
 30
0.0
 10
402.9292660745307
 20
-356.2659181333793
 30
0.0
 10
402.7993320984009
 20
-358.345444187905
 30
0.0
 10
402.712903593133
 20
-359.7284268888128
 30
0.0
 10
403.0732291722299
 20
-361.0921891867032
 30
0.0
 10
402.4486293824748
 20
-362.5127770239491
 30
0.0
 10
399.9995094122193
 20
-368.0829207236976
 30
0.0
 10
398.3336145340911
 20
-368.6578361515026
 30
0.0
 10
391.9202041406937
 20
-365.7619620968816
 30
0.0
 10
389.6968162817653
 20
-366.7873794610236
 30
0.0
 10
390.860169792462
 20
-369.2198366839993
 30
0.0
 10
389.8548844710068
 20
-370.8378451561906
 30
0.0
 10
387.3154868502148
 20
-371.3315993301479
 30
0.0
 10
384.8050337889069
 20
-371.7632607133289
 30
0.0
 10
382.4401898413676
 20
-369.6100184622495
 30
0.0
 10
381.0299592436926
 20
-368.325999312056
 30
0.0
 10
378.9608663987094
 20
-368.6042013509878
 30
0.0
 10
377.2623044324488
 20
-368.7717911101035
 30
0.0
 10
376.5672804782783
 20
-370.3299605673675
 30
0.0
 10
376.2841910377887
 20
-371.745433093139
 30
0.0
 10
376.2195405912756
 20
-373.2811660852201
 30
0.0
 10
376.1044460830888
 20
-376.0150215120342
 30
0.0
 10
373.7266112702689
 20
-377.4287973750882
 30
0.0
 10
371.7925930362141
 20
-375.6793861739676
 30
0.0
 10
369.1056617290196
 20
-373.2489041702736
 30
0.0
 10
367.2816480150015
 20
-373.1992704549722
 30
0.0
 10
364.5853977245256
 20
-375.6977709072884
 30
0.0
 10
361.1837915636332
 20
-378.8499423254656
 30
0.0
 10
356.0125915122856
 20
-376.4497216941114
 30
0.0
 10
354.5857741373023
 20
-372.0750668033854
 30
0.0
 10
352.8255498767764
 20
-366.6780839940628
 30
0.0
 10
352.315487482078
 20
-360.5910406020997
 30
0.0
 10
347.267080229454
 20
-356.6390826378118
 30
0.0
 10
345.7270929189179
 20
-355.4335151457836
 30
0.0
 10
344.5760718670739
 20
-354.0247786242325
 30
0.0
 10
342.6639329850711
 20
-355.856237395546
 30
0.0
 10
340.661643069152
 20
-357.7740993488033
 30
0.0
 10
338.331036255841
 20
-357.1412188320562
 30
0.0
 10
335.9069610531537
 20
-356.7276889489551
 30
0.0
 10
335.6522843823421
 20
-353.5923068946791
 30
0.0
 10
334.5300559500376
 20
-350.3147850220407
 30
0.0
 10
338.1014549992461
 20
-348.1820799868338
 30
0.0
  0
SPLINE
  5
49
330
41
100
AcDbEntity
  8
Laag 1
 62
     7
370
   140
100
AcDbSpline
210
0.0
220
0.0
230
1.0
 70
     8
 71
     3
 72
    29
 73
    25
 74
     0
 42
0.0000000001
 43
0.0000000001
 12
1.0
 22
0.0
 32
0.0
 13
1.0
 23
0.0
 33
0.0
 40
0.0
 40
0.0
 40
0.0
 40
0.0
 40
1.0
 40
1.0
 40
1.0
 40
2.0
 40
2.0
 40
2.0
 40
3.0
 40
3.0
 40
3.0
 40
4.0
 40
4.0
 40
4.0
 40
5.0
 40
5.0
 40
5.0
 40
6.0
 40
6.0
 40
6.0
 40
7.0
 40
7.0
 40
7.0
 40
8.0
 40
8.0
 40
8.0
 40
8.0
 10
287.0690818588658
 20
-259.6014973407262
 30
0.0
 10
284.6111493718111
 20
-261.6601063295178
 30
0.0
 10
285.4477813545368
 20
-264.9576842748695
 30
0.0
 10
284.0604936885263
 20
-267.6448941386296
 30
0.0
 10
280.7470380189428
 20
-274.063014670315
 30
0.0
 10
278.7208682083656
 20
-281.2274895341903
 30
0.0
 10
276.8474486889626
 20
-288.2695261258792
 30
0.0
 10
276.0258081141242
 20
-291.3580347071843
 30
0.0
 10
275.9467233728552
 20
-295.0025675164907
 30
0.0
 10
279.5419263467489
 20
-297.4440651661821
 30
0.0
 10
281.4273744451153
 20
-298.7244630810244
 30
0.0
 10
282.7031888382897
 20
-300.9025728364028
 30
0.0
 10
284.4621216092847
 20
-302.9127383061274
 30
0.0
 10
282.1932530602114
 20
-307.0380850707577
 30
0.0
 10
281.9794988812004
 20
-311.2641680187917
 30
0.0
 10
284.0749279832821
 20
-315.6555109801218
 30
0.0
 10
284.6011719821024
 20
-316.7583164228154
 30
0.0
 10
284.1749551136101
 20
-318.3663221819737
 30
0.0
 10
283.7939150553714
 20
-319.7735393040774
 30
0.0
 10
282.5488938243439
 20
-324.3715965603095
 30
0.0
 10
283.5133326239713
 20
-325.5394322993783
 30
0.0
 10
288.3137992100039
 20
-325.5654899999124
 30
0.0
 10
291.7095050363732
 20
-325.5839000565574
 30
0.0
 10
295.2565430477649
 20
-326.137822448655
 30
0.0
 10
297.8564127665884
 20
-323.0807907592484
 30
0.0
  0
SPLINE
  5
4A
330
41
100
AcDbEntity
  8
Laag 1
 62
     7
370
    70
100
AcDbSpline
210
0.0
220
0.0
230
1.0
 70
     8
 71
     3
 72
    38
 73
    34
 74
     0
 42
0.0000000001
 43
0.0000000001
 12
1.0
 22
0.0
 32
0.0
 13
1.0
 23
0.0
 33
0.0
 40
0.0
 40
0.0
 40
0.0
 40
0.0
 40
1.0
 40
1.0
 40
1.0
 40
2.0
 40
2.0
 40
2.0
 40
3.0
 40
3.0
 40
3.0
 40
4.0
 40
4.0
 40
4.0
 40
5.0
 40
5.0
 40
5.0
 40
6.0
 40
6.0
 40
6.0
 40
7.0
 40
7.0
 40
7.0
 40
8.0
 40
8.0
 40
8.0
 40
9.0
 40
9.0
 40
9.0
 40
10.0
 40
10.0
 40
10.0
 40
11.0
 40
11.0
 40
11.0
 40
11.0
 10
192.8873850875934
 20
-159.1963404303831
 30
0.0
 10
193.120866136105
 20
-161.4431397024738
 30
0.0
 10
195.847352475596
 20
-162.8466342959294
 30
0.0
 10
194.3813472565166
 20
-165.9523627376454
 30
0.0
 10
193.6866398438976
 20
-167.4240910279793
 30
0.0
 10
196.2378381337363
 20
-169.766245277095
 30
0.0
 10
198.6693457320572
 20
-169.0620036329398
 30
0.0
 10
200.8381998124645
 20
-168.4338459161442
 30
0.0
 10
204.38213571665
 20
-169.1054331338289
 30
0.0
 10
203.5620778495701
 20
-165.0049032268493
 30
0.0
 10
204.36620734577
 20
-165.0049032268493
 30
0.0
 10
204.8263954535877
 20
-164.9019006059359
 30
0.0
 10
204.8926286078592
 20
-165.0199326197224
 30
0.0
 10
206.6641723942726
 20
-168.177371289319
 30
0.0
 10
207.6191782556606
 20
-172.0518905284065
 30
0.0
 10
211.9726628474105
 20
-172.8879527363389
 30
0.0
 10
211.5550938941099
 20
-177.2080358635567
 30
0.0
 10
216.070673083639
 20
-177.8851688892269
 30
0.0
 10
218.1128092500819
 20
-180.0421716539398
 30
0.0
 10
220.0496383731154
 20
-182.0879417173958
 30
0.0
 10
224.7934060364123
 20
-183.7161934741995
 30
0.0
 10
228.0645464313687
 20
-182.2339560043503
 30
0.0
 10
231.895990696105
 20
-180.4978395483996
 30
0.0
 10
234.0255809624432
 20
-184.0871042027841
 30
0.0
 10
237.2942143483103
 20
-183.9038646293537
 30
0.0
 10
238.8424317391895
 20
-183.8170689358857
 30
0.0
 10
237.4756306424032
 20
-186.1646676996902
 30
0.0
 10
237.0888421895868
 20
-187.7659881012774
 30
0.0
 10
240.952523045945
 20
-188.1123605287768
 30
0.0
 10
244.7369925444135
 20
-190.8017988450606
 30
0.0
 10
248.1353826431411
 20
-186.6338962342232
 30
0.0
 10
248.4667383394292
 20
-186.2274948668655
 30
0.0
 10
249.7283210244399
 20
-186.5795650422947
 30
0.0
 10
250.5581157096496
 20
-186.5795650422947
 30
0.0
  0
SPLINE
  5
4B
330
41
100
AcDbEntity
  8
Laag 1
 62
     7
370
   140
100
AcDbSpline
210
0.0
220
0.0
230
1.0
 70
     8
 71
     3
 72
    47
 73
    43
 74
     0
 42
0.0000000001
 43
0.0000000001
 12
1.0
 22
0.0
 32
0.0
 13
1.0
 23
0.0
 33
0.0
 40
0.0
 40
0.0
 40
0.0
 40
0.0
 40
1.0
 40
1.0
 40
1.0
 40
2.0
 40
2.0
 40
2.0
 40
3.0
 40
3.0
 40
3.0
 40
4.0
 40
4.0
 40
4.0
 40
5.0
 40
5.0
 40
5.0
 40
6.0
 40
6.0
 40
6.0
 40
7.0
 40
7.0
 40
7.0
 40
8.0
 40
8.0
 40
8.0
 40
9.0
 40
9.0
 40
9.0
 40
10.0
 40
10.0
 40
10.0
 40
11.0
 40
11.0
 40
11.0
 40
12.0
 40
12.0
 40
12.0
 40
13.0
 40
13.0
 40
13.0
 40
14.0
 40
14.0
 40
14.0
 40
14.0
 10
306.9841543038919
 20
-264.1653681093779
 30
0.0
 10
308.2391022779801
 20
-268.1231757615409
 30
0.0
 10
304.5973043876805
 20
-270.860905656947
 30
0.0
 10
304.4365266027565
 20
-274.5352440187582
 30
0.0
 10
304.2382956214388
 20
-279.0648523298573
 30
0.0
 10
298.0421593491079
 20
-277.6794385898334
 30
0.0
 10
297.0717189216603
 20
-281.7801710834055
 30
0.0
 10
298.4642738390909
 20
-282.8714290902943
 30
0.0
 10
300.6338496342358
 20
-283.0784725884106
 30
0.0
 10
300.5326576309984
 20
-286.1610555118683
 30
0.0
 10
300.4158917834185
 20
-289.7175644464865
 30
0.0
 10
302.2126069540209
 20
-290.2097485743465
 30
0.0
 10
306.5692569612877
 20
-288.6443113230563
 30
0.0
 10
309.9514654558935
 20
-290.7667097653409
 30
0.0
 10
312.2697651336754
 20
-293.3433579959336
 30
0.0
 10
312.5365970000711
 20
-297.7624553205138
 30
0.0
 10
312.6756980195367
 20
-300.0656116504634
 30
0.0
 10
312.7116064931581
 20
-301.4752851350082
 30
0.0
 10
310.2991040495998
 20
-301.8967918652119
 30
0.0
 10
307.8672545864028
 20
-302.3216919208491
 30
0.0
 10
306.4155950304449
 20
-303.6138651814139
 30
0.0
 10
306.1822405985537
 20
-306.0726586614888
 30
0.0
 10
306.0956601533408
 20
-306.9851593233186
 30
0.0
 10
305.7677990757833
 20
-307.3611853633781
 30
0.0
 10
304.9281029708378
 20
-307.7676753623708
 30
0.0
 10
299.9428014419545
 20
-310.1810387989499
 30
0.0
 10
298.9829968106436
 20
-315.3301822349776
 30
0.0
 10
297.1081845084132
 20
-319.7958491526395
 30
0.0
 10
296.8040767088923
 20
-320.5201721928325
 30
0.0
 10
297.3153546231501
 20
-322.3104299157803
 30
0.0
 10
297.9007539071462
 20
-322.5631060439853
 30
0.0
 10
300.9360075377979
 20
-323.8732841880093
 30
0.0
 10
302.3491503177489
 20
-327.3945177321085
 30
0.0
 10
306.5640656798398
 20
-327.4815793204801
 30
0.0
 10
310.4583624350757
 20
-327.5619555512799
 30
0.0
 10
314.1777003438725
 20
-329.3677617952466
 30
0.0
 10
315.0260063790237
 20
-334.6725170580746
 30
0.0
 10
315.8631701515559
 20
-339.907557209563
 30
0.0
 10
321.3692711645701
 20
-341.6746187676051
 30
0.0
 10
325.2522230705941
 20
-341.8130107339948
 30
0.0
 10
331.0032259513048
 20
-342.0179523962086
 30
0.0
 10
334.0863659878933
 20
-344.663176188555
 30
0.0
 10
336.8567629714323
 20
-348.8044260007413
 30
0.0
  0
SPLINE
  5
4C
330
41
100
AcDbEntity
  8
Laag 1
 62
     7
370
   140
100
AcDbSpline
210
0.0
220
0.0
230
1.0
 70
     8
 71
     3
 72
    32
 73
    28
 74
     0
 42
0.0000000001
 43
0.0000000001
 12
1.0
 22
0.0
 32
0.0
 13
1.0
 23
0.0
 33
0.0
 40
0.0
 40
0.0
 40
0.0
 40
0.0
 40
1.0
 40
1.0
 40
1.0
 40
2.0
 40
2.0
 40
2.0
 40
3.0
 40
3.0
 40
3.0
 40
4.0
 40
4.0
 40
4.0
 40
5.0
 40
5.0
 40
5.0
 40
6.0
 40
6.0
 40
6.0
 40
7.0
 40
7.0
 40
7.0
 40
8.0
 40
8.0
 40
8.0
 40
9.0
 40
9.0
 40
9.0
 40
9.0
 10
438.091714566984
 20
-183.2603989631192
 30
0.0
 10
440.3045172764257
 20
-180.9093182422464
 30
0.0
 10
442.4432745861
 20
-178.4817484208279
 30
0.0
 10
444.7608652108061
 20
-176.2389755572747
 30
0.0
 10
445.9440215609758
 20
-175.0940321032228
 30
0.0
 10
446.3853058073277
 20
-173.8873377232711
 30
0.0
 10
445.7301407653435
 20
-172.4905031640622
 30
0.0
 10
445.0828259538405
 20
-171.1104579687542
 30
0.0
 10
443.8559615462167
 20
-170.5101305851811
 30
0.0
 10
442.2440813184656
 20
-170.3617105824341
 30
0.0
 10
437.1819994708095
 20
-169.8956348017555
 30
0.0
 10
437.1877731887118
 20
-169.8323644764076
 30
0.0
 10
436.8470225391702
 20
-165.0049032268493
 30
0.0
 10
436.6013356484264
 20
-161.5247820994803
 30
0.0
 10
429.6219236373195
 20
-152.780233102966
 30
0.0
 10
426.4675237666184
 20
-152.1802475842687
 30
0.0
 10
425.2662865630179
 20
-151.9517678922737
 30
0.0
 10
423.9839134288932
 20
-152.1069618842264
 30
0.0
 10
422.740816770499
 20
-152.1516702129842
 30
0.0
 10
420.9371376857604
 20
-152.216510584428
 30
0.0
 10
419.9979715636178
 20
-151.8604266621236
 30
0.0
 10
419.2587584088339
 20
-149.7095774651752
 30
0.0
 10
418.2119175124757
 20
-146.6636880383872
 30
0.0
 10
414.7026872240156
 20
-146.1713393089198
 30
0.0
 10
411.9287196517738
 20
-145.6301292255368
 30
0.0
 10
409.8453950986275
 20
-145.2236898731926
 30
0.0
 10
407.4811082642191
 20
-145.0372468992592
 30
0.0
 10
405.3148245012111
 20
-145.9196254670319
 30
0.0
  0
SPLINE
  5
4D
330
41
100
AcDbEntity
  8
Laag 1
 62
     7
370
    70
100
AcDbSpline
210
0.0
220
0.0
230
1.0
 70
     8
 71
     3
 72
    35
 73
    31
 74
     0
 42
0.0000000001
 43
0.0000000001
 12
1.0
 22
0.0
 32
0.0
 13
1.0
 23
0.0
 33
0.0
 40
0.0
 40
0.0
 40
0.0
 40
0.0
 40
1.0
 40
1.0
 40
1.0
 40
2.0
 40
2.0
 40
2.0
 40
3.0
 40
3.0
 40
3.0
 40
4.0
 40
4.0
 40
4.0
 40
5.0
 40
5.0
 40
5.0
 40
6.0
 40
6.0
 40
6.0
 40
7.0
 40
7.0
 40
7.0
 40
8.0
 40
8.0
 40
8.0
 40
9.0
 40
9.0
 40
9.0
 40
10.0
 40
10.0
 40
10.0
 40
10.0
 10
326.0694320637097
 20
-53.39751806617878
 30
0.0
 10
324.5568952365336
 20
-54.88029998749694
 30
0.0
 10
325.1171737829899
 20
-57.11586836533438
 30
0.0
 10
323.8494122068903
 20
-58.9748789133052
 30
0.0
 10
322.6653442170519
 20
-60.7112359408352
 30
0.0
 10
322.841999726207
 20
-64.26773854462202
 30
0.0
 10
325.276812018328
 20
-66.2128167404918
 30
0.0
 10
326.4386967762252
 20
-67.14101786328449
 30
0.0
 10
328.8115935408386
 20
-66.68995881381683
 30
0.0
 10
328.5488893762771
 20
-69.16255983637565
 30
0.0
 10
328.2358171200133
 20
-72.10903622344645
 30
0.0
 10
329.5941095798908
 20
-75.38011964092354
 30
0.0
 10
326.8548096383881
 20
-77.99342338319958
 30
0.0
 10
325.9048811034893
 20
-77.67897100577063
 30
0.0
 10
324.9498879037629
 20
-77.36282829645604
 30
0.0
 10
323.6579425531158
 20
-76.93515533682564
 30
0.0
 10
321.7911070979881
 20
-79.9320188080912
 30
0.0
 10
318.7405075329105
 20
-81.40600720510405
 30
0.0
 10
315.2771631077805
 20
-81.9964458306027
 30
0.0
 10
311.9883470325788
 20
-82.55712955024448
 30
0.0
 10
310.8721708747425
 20
-85.99953791714755
 30
0.0
 10
307.9747520973498
 20
-87.34936605593329
 30
0.0
 10
306.9123120333248
 20
-87.84431042612432
 30
0.0
 10
305.7343722879273
 20
-88.4367495942297
 30
0.0
 10
304.4916048327467
 20
-88.64490731860761
 30
0.0
 10
301.9868748426939
 20
-89.06441983703566
 30
0.0
 10
299.4979466068993
 20
-89.58203491315741
 30
0.0
 10
299.5688265911497
 20
-92.81160707154832
 30
0.0
 10
299.6087867966325
 20
-94.63189192608802
 30
0.0
 10
297.1085137116268
 20
-94.7329889668604
 30
0.0
 10
297.441515423983
 20
-96.54684169707015
 30
0.0
  0
SPLINE
  5
4E
330
41
100
AcDbEntity
  8
Laag 1
 62
     7
370
    70
100
AcDbSpline
210
0.0
220
0.0
230
1.0
 70
     8
 71
     3
 72
    86
 73
    82
 74
     0
 42
0.0000000001
 43
0.0000000001
 12
1.0
 22
0.0
 32
0.0
 13
1.0
 23
0.0
 33
0.0
 40
0.0
 40
0.0
 40
0.0
 40
0.0
 40
1.0
 40
1.0
 40
1.0
 40
2.0
 40
2.0
 40
2.0
 40
3.0
 40
3.0
 40
3.0
 40
4.0
 40
4.0
 40
4.0
 40
5.0
 40
5.0
 40
5.0
 40
6.0
 40
6.0
 40
6.0
 40
7.0
 40
7.0
 40
7.0
 40
8.0
 40
8.0
 40
8.0
 40
9.0
 40
9.0
 40
9.0
 40
10.0
 40
10.0
 40
10.0
 40
11.0
 40
11.0
 40
11.0
 40
12.0
 40
12.0
 40
12.0
 40
13.0
 40
13.0
 40
13.0
 40
14.0
 40
14.0
 40
14.0
 40
15.0
 40
15.0
 40
15.0
 40
16.0
 40
16.0
 40
16.0
 40
17.0
 40
17.0
 40
17.0
 40
18.0
 40
18.0
 40
18.0
 40
19.0
 40
19.0
 40
19.0
 40
20.0
 40
20.0
 40
20.0
 40
21.0
 40
21.0
 40
21.0
 40
22.0
 40
22.0
 40
22.0
 40
23.0
 40
23.0
 40
23.0
 40
24.0
 40
24.0
 40
24.0
 40
25.0
 40
25.0
 40
25.0
 40
26.0
 40
26.0
 40
26.0
 40
27.0
 40
27.0
 40
27.0
 40
27.0
 10
297.8564127665884
 20
-167.4942872824776
 30
0.0
 10
296.0055816523125
 20
-167.4738007132536
 30
0.0
 10
294.50188266526
 20
-167.701191502311
 30
0.0
 10
292.7791875711
 20
-169.0258166027527
 30
0.0
 10
289.3318474868219
 20
-171.6765228947743
 30
0.0
 10
284.9829210934163
 20
-173.2592306531236
 30
0.0
 10
280.8069783271666
 20
-173.8673322972054
 30
0.0
 10
278.1068029214501
 20
-174.2605275510278
 30
0.0
 10
276.4693714596485
 20
-176.3148442363788
 30
0.0
 10
274.1977679915689
 20
-176.5134424058966
 30
0.0
 10
269.7793037500917
 20
-176.8997243922305
 30
0.0
 10
265.2272589738104
 20
-177.0572861149897
 30
0.0
 10
261.5479572404685
 20
-173.9662705245953
 30
0.0
 10
259.7426574629854
 20
-175.4128021074163
 30
0.0
 10
260.6267453551372
 20
-177.1752294971419
 30
0.0
 10
260.5595878995352
 20
-178.6984527671014
 30
0.0
 10
260.4040013960578
 20
-182.2291192494406
 30
0.0
 10
259.437587377148
 20
-183.1010899309948
 30
0.0
 10
255.9517811635116
 20
-182.4305916162475
 30
0.0
 10
251.8709274793833
 20
-181.6456318764166
 30
0.0
 10
252.0138776441174
 20
-181.7799721109454
 30
0.0
 10
251.2604581044948
 20
-185.7254346425929
 30
0.0
 10
250.9580469676913
 20
-187.3092439655421
 30
0.0
 10
252.3258609974431
 20
-188.8351261845356
 30
0.0
 10
250.9993493093535
 20
-190.3369005989539
 30
0.0
 10
249.8874274699721
 20
-191.5957230416346
 30
0.0
 10
248.0019793716057
 20
-192.3552201790495
 30
0.0
 10
247.9448752756839
 20
-194.7078709460183
 30
0.0
 10
248.8529950024387
 20
-196.3725756279121
 30
0.0
 10
252.3514628781421
 20
-195.213058600821
 30
0.0
 10
252.2348996171558
 20
-198.1973617033167
 30
0.0
 10
252.1627534666987
 20
-200.0445589205792
 30
0.0
 10
252.1647540093055
 20
-201.6327998252516
 30
0.0
 10
250.7295039673859
 20
-203.321143830224
 30
0.0
 10
249.8796025628145
 20
-204.3208833436941
 30
0.0
 10
249.8613444461138
 20
-207.3155183624357
 30
0.0
 10
252.6415922027408
 20
-207.6684621925479
 30
0.0
 10
253.9523274598957
 20
-207.8348744170914
 30
0.0
 10
254.2678560785999
 20
-208.8822344415946
 30
0.0
 10
254.8814655456811
 20
-209.2421801708294
 30
0.0
 10
252.0183598724888
 20
-213.8122678155563
 30
0.0
 10
250.8952198005157
 20
-218.577357717774
 30
0.0
 10
252.1440648534886
 20
-223.9374950904823
 30
0.0
 10
252.4478434497952
 20
-225.2413677267968
 30
0.0
 10
252.6298675036668
 20
-226.4919600891343
 30
0.0
 10
250.2386113290562
 20
-227.472225966345
 30
0.0
 10
246.3380850360836
 20
-229.0712419454368
 30
0.0
 10
243.231723511265
 20
-229.9638637978214
 30
0.0
 10
240.4959435118164
 20
-226.4500499876928
 30
0.0
 10
239.1681909808442
 20
-226.2812700323425
 30
0.0
 10
238.5173562272867
 20
-226.9598338258261
 30
0.0
 10
238.1420139169788
 20
-227.6706595342562
 30
0.0
 10
236.769844275476
 20
-230.2694909967897
 30
0.0
 10
234.538125042907
 20
-231.2197487349027
 30
0.0
 10
231.9051070927929
 20
-230.4955269880061
 30
0.0
 10
228.6387781294219
 20
-229.5970807710706
 30
0.0
 10
228.3323659074056
 20
-232.8755142833771
 30
0.0
 10
226.584676692326
 20
-234.0166085921609
 30
0.0
 10
223.5105264358046
 20
-236.0237859096373
 30
0.0
 10
219.171906635321
 20
-236.2125712910535
 30
0.0
 10
217.3876505401924
 20
-239.9527249722879
 30
0.0
 10
219.5883993473461
 20
-246.3107279324809
 30
0.0
 10
224.7406069055939
 20
-242.6309197326567
 30
0.0
 10
228.7159889447052
 20
-243.0380934614003
 30
0.0
 10
229.7071944979421
 20
-246.1364781391176
 30
0.0
 10
226.4825224027709
 20
-249.0705904131797
 30
0.0
 10
229.0845952507937
 20
-251.4381439564016
 30
0.0
 10
228.6809667874285
 20
-253.3247822510018
 30
0.0
 10
226.7832622001816
 20
-252.9804103661095
 30
0.0
 10
226.0279180879248
 20
-254.1754180319733
 30
0.0
 10
225.3848069482282
 20
-255.1928585490126
 30
0.0
 10
225.381008449608
 20
-256.6916448111836
 30
0.0
 10
225.7411061187877
 20
-257.0304455647665
 30
0.0
 10
230.0341186125069
 20
-261.0695917340466
 30
0.0
 10
228.913257639706
 20
-265.823438080349
 30
0.0
 10
228.3422926504658
 20
-270.8252504165671
 30
0.0
 10
228.0724726318224
 20
-273.1891320777891
 30
0.0
 10
229.9606809725193
 20
-275.745091152565
 30
0.0
 10
230.6041466387538
 20
-278.2817538543507
 30
0.0
 10
231.338548361952
 20
-281.1769441792195
 30
0.0
 10
231.5600008315005
 20
-284.13726609376
 30
0.0
 10
230.2281459220183
 20
-286.9847219526377
 30
0.0
  0
SPLINE
  5
4F
330
41
100
AcDbEntity
  8
Laag 1
 62
     7
370
    70
100
AcDbSpline
210
0.0
220
0.0
230
1.0
 70
     8
 71
     3
 72
    50
 73
    46
 74
     0
 42
0.0000000001
 43
0.0000000001
 12
1.0
 22
0.0
 32
0.0
 13
1.0
 23
0.0
 33
0.0
 40
0.0
 40
0.0
 40
0.0
 40
0.0
 40
1.0
 40
1.0
 40
1.0
 40
2.0
 40
2.0
 40
2.0
 40
3.0
 40
3.0
 40
3.0
 40
4.0
 40
4.0
 40
4.0
 40
5.0
 40
5.0
 40
5.0
 40
6.0
 40
6.0
 40
6.0
 40
7.0
 40
7.0
 40
7.0
 40
8.0
 40
8.0
 40
8.0
 40
9.0
 40
9.0
 40
9.0
 40
10.0
 40
10.0
 40
10.0
 40
11.0
 40
11.0
 40
11.0
 40
12.0
 40
12.0
 40
12.0
 40
13.0
 40
13.0
 40
13.0
 40
14.0
 40
14.0
 40
14.0
 40
15.0
 40
15.0
 40
15.0
 40
15.0
 10
385.3997267328601
 20
-235.5374514696519
 30
0.0
 10
385.843973808136
 20
-234.0232179797598
 30
0.0
 10
386.2881955600876
 20
-232.509009813192
 30
0.0
 10
386.6778961951791
 20
-231.1806748457643
 30
0.0
 10
386.187054203498
 20
-228.1408123701205
 30
0.0
 10
380.8644966438036
 20
-230.3925370287548
 30
0.0
 10
381.731288705572
 20
-226.4240429338079
 30
0.0
 10
382.2292465513349
 20
-224.1441587387363
 30
0.0
 10
383.385534854599
 20
-222.008060378096
 30
0.0
 10
384.4990267400771
 20
-219.1582747733987
 30
0.0
 10
376.7515076613503
 20
-221.3699885799017
 30
0.0
 10
372.7162866073108
 20
-216.9055878284464
 30
0.0
 10
369.2522331291049
 20
-211.1669553915756
 30
0.0
 10
367.2484997837105
 20
-212.5638026124462
 30
0.0
 10
365.1712275050324
 20
-213.3866080601948
 30
0.0
 10
362.9952955555294
 20
-213.9627643308822
 30
0.0
 10
360.8122983985938
 20
-212.2634806498838
 30
0.0
 10
359.5592749971394
 20
-208.5278725053315
 30
0.0
 10
356.3937075404958
 20
-209.166286168401
 30
0.0
 10
353.4218888367985
 20
-209.7656259423328
 30
0.0
 10
351.2348652713251
 20
-209.0141183136826
 30
0.0
 10
349.256176693499
 20
-207.4993277106597
 30
0.0
 10
347.7111247181363
 20
-208.5691242003452
 30
0.0
 10
348.4925265309262
 20
-209.2168948316825
 30
0.0
 10
348.7478869314894
 20
-210.2631026449371
 30
0.0
 10
349.4915316679969
 20
-213.3098783880698
 30
0.0
 10
347.2174718374762
 20
-215.1506308193406
 30
0.0
 10
343.9066244702788
 20
-214.8273279401274
 30
0.0
 10
342.3645100005153
 20
-214.6767554548286
 30
0.0
 10
340.8157101731806
 20
-214.6238550307138
 30
0.0
 10
339.3177595807068
 20
-215.5778352974745
 30
0.0
 10
337.4763993896566
 20
-216.7505077914526
 30
0.0
 10
335.4604095553818
 20
-217.768378805002
 30
0.0
 10
332.7077895453848
 20
-216.9395210827854
 30
0.0
 10
332.7077895453848
 20
-215.4866713305937
 30
0.0
 10
332.7077895453848
 20
-214.0984973482386
 30
0.0
 10
332.7077895453848
 20
-212.7742141126723
 30
0.0
 10
326.8875020498447
 20
-211.986937288683
 30
0.0
 10
326.7711920220991
 20
-211.9995483041014
 30
0.0
 10
326.1288152588026
 20
-206.0733080203866
 30
0.0
 10
325.8843692109411
 20
-203.8181773746561
 30
0.0
 10
323.6931419736615
 20
-202.9914974583155
 30
0.0
 10
323.199311829732
 20
-201.0920962083512
 30
0.0
 10
322.9574234376081
 20
-200.1618818812899
 30
0.0
 10
320.7303130500319
 20
-199.4731001265183
 30
0.0
 10
322.7502533228711
 20
-198.1966906352273
 30
0.0
  0
SPLINE
  5
50
330
41
100
AcDbEntity
  8
Laag 1
 62
     7
370
    70
100
AcDbSpline
210
0.0
220
0.0
230
1.0
 70
     8
 71
     3
 72
    41
 73
    37
 74
     0
 42
0.0000000001
 43
0.0000000001
 12
1.0
 22
0.0
 32
0.0
 13
1.0
 23
0.0
 33
0.0
 40
0.0
 40
0.0
 40
0.0
 40
0.0
 40
1.0
 40
1.0
 40
1.0
 40
2.0
 40
2.0
 40
2.0
 40
3.0
 40
3.0
 40
3.0
 40
4.0
 40
4.0
 40
4.0
 40
5.0
 40
5.0
 40
5.0
 40
6.0
 40
6.0
 40
6.0
 40
7.0
 40
7.0
 40
7.0
 40
8.0
 40
8.0
 40
8.0
 40
9.0
 40
9.0
 40
9.0
 40
10.0
 40
10.0
 40
10.0
 40
11.0
 40
11.0
 40
11.0
 40
12.0
 40
12.0
 40
12.0
 40
12.0
 10
211.1428681622012
 20
-38.8761110750137
 30
0.0
 10
213.1771161131765
 20
-38.82906666960449
 30
0.0
 10
215.1291139073659
 20
-38.40819618791978
 30
0.0
 10
215.1195796758298
 20
-41.78107936841369
 30
0.0
 10
215.116971373444
 20
-42.70862841560986
 30
0.0
 10
215.0424068455326
 20
-44.9763985654988
 30
0.0
 10
216.9099260304123
 20
-46.00473760816198
 30
0.0
 10
218.501826155422
 20
-46.88129181138403
 30
0.0
 10
219.7335273179558
 20
-48.41193798073044
 30
0.0
 10
221.2211459941833
 20
-49.73939929347516
 30
0.0
 10
217.6860099451345
 20
-54.63922827257635
 30
0.0
 10
217.6521273374438
 20
-59.52314787329072
 30
0.0
 10
218.9804369815469
 20
-64.61161662469387
 30
0.0
 10
219.1807444754435
 20
-65.37900197757615
 30
0.0
 10
219.1686399265077
 20
-66.08293341101059
 30
0.0
 10
219.8402398058548
 20
-66.69132627332024
 30
0.0
 10
223.0050728860983
 20
-69.55833806925959
 30
0.0
 10
222.1567415276229
 20
-73.40929395524078
 30
0.0
 10
222.4080501963248
 20
-77.04231098289719
 30
0.0
 10
222.5372244727301
 20
-78.91039361173875
 30
0.0
 10
221.0852357135586
 20
-80.40574856348925
 30
0.0
 10
220.3131528840495
 20
-80.20347218114122
 30
0.0
 10
217.3045520520482
 20
-79.41526472499027
 30
0.0
 10
214.6236476959975
 20
-82.48013398321658
 30
0.0
 10
211.4685387722212
 20
-80.508630898613
 30
0.0
 10
210.390271630613
 20
-79.83485954422157
 30
0.0
 10
207.9715649726413
 20
-79.55922782268979
 30
0.0
 10
206.9100238866236
 20
-81.98879185588328
 30
0.0
 10
206.4485696125993
 20
-83.0449454046919
 30
0.0
 10
205.07176580278
 20
-83.7011613646277
 30
0.0
 10
203.9675929005831
 20
-84.6637895465801
 30
0.0
 10
204.7755082337411
 20
-86.55392245991086
 30
0.0
 10
205.7586862932278
 20
-88.3899267679066
 30
0.0
 10
205.8606000112035
 20
-90.73343581486326
 30
0.0
 10
206.098968461273
 20
-96.21398559382722
 30
0.0
 10
206.7770004649497
 20
-96.67383816759988
 30
0.0
 10
211.9726628474105
 20
-97.37663638227947
 30
0.0
  0
SPLINE
  5
51
330
41
100
AcDbEntity
  8
Laag 1
 62
     7
370
    70
100
AcDbSpline
210
0.0
220
0.0
230
1.0
 70
     8
 71
     3
 72
    20
 73
    16
 74
     0
 42
0.0000000001
 43
0.0000000001
 12
1.0
 22
0.0
 32
0.0
 13
1.0
 23
0.0
 33
0.0
 40
0.0
 40
0.0
 40
0.0
 40
0.0
 40
1.0
 40
1.0
 40
1.0
 40
2.0
 40
2.0
 40
2.0
 40
3.0
 40
3.0
 40
3.0
 40
4.0
 40
4.0
 40
4.0
 40
5.0
 40
5.0
 40
5.0
 40
5.0
 10
328.9737134619427
 20
-244.6651930069559
 30
0.0
 10
327.4409179754606
 20
-244.8785420127811
 30
0.0
 10
325.7332902591601
 20
-244.1302631079579
 30
0.0
 10
323.929560527773
 20
-245.7019298969848
 30
0.0
 10
327.7829347912089
 20
-247.6937106333886
 30
0.0
 10
329.0321596940427
 20
-251.436219383767
 30
0.0
 10
331.0509857406209
 20
-254.6209565967801
 30
0.0
 10
332.6657781506474
 20
-257.1683563879982
 30
0.0
 10
332.1445481700051
 20
-259.2906028903378
 30
0.0
 10
329.3886108045469
 20
-261.2610867111448
 30
0.0
 10
330.6909640414133
 20
-265.6612928359213
 30
0.0
 10
330.0744170687331
 20
-266.9414628408464
 30
0.0
 10
323.9771430538199
 20
-267.7680414638913
 30
0.0
 10
318.3907671033016
 20
-268.5253861187545
 30
0.0
 10
312.6544264272648
 20
-268.1760508623315
 30
0.0
 10
306.9841543038919
 20
-268.314366858749
 30
0.0
  0
SPLINE
  5
52
330
41
100
AcDbEntity
  8
Laag 1
 62
     7
370
    70
100
AcDbSpline
210
0.0
220
0.0
230
1.0
 70
     8
 71
     3
 72
    32
 73
    28
 74
     0
 42
0.0000000001
 43
0.0000000001
 12
1.0
 22
0.0
 32
0.0
 13
1.0
 23
0.0
 33
0.0
 40
0.0
 40
0.0
 40
0.0
 40
0.0
 40
1.0
 40
1.0
 40
1.0
 40
2.0
 40
2.0
 40
2.0
 40
3.0
 40
3.0
 40
3.0
 40
4.0
 40
4.0
 40
4.0
 40
5.0
 40
5.0
 40
5.0
 40
6.0
 40
6.0
 40
6.0
 40
7.0
 40
7.0
 40
7.0
 40
8.0
 40
8.0
 40
8.0
 40
9.0
 40
9.0
 40
9.0
 40
9.0
 10
116.1313767057199
 20
-56.71669680701667
 30
0.0
 10
111.6549726986252
 20
-61.60400340233375
 30
0.0
 10
111.6151264481011
 20
-62.22187984953134
 30
0.0
 10
115.3015820205102
 20
-69.57851442776312
 30
0.0
 10
116.1845683480622
 20
-71.34057462928862
 30
0.0
 10
114.8111958486635
 20
-77.60961042096862
 30
0.0
 10
113.2299695047758
 20
-79.12415412158144
 30
0.0
 10
112.0835826212483
 20
-80.22219244850703
 30
0.0
 10
110.6618932194023
 20
-81.09037096227203
 30
0.0
 10
109.633456048858
 20
-82.16041435436786
 30
0.0
 10
108.9405212689286
 20
-82.88138205411319
 30
0.0
 10
108.9945485809675
 20
-85.65936970406096
 30
0.0
 10
110.3595263984163
 20
-86.04418926842604
 30
0.0
 10
114.5117348791215
 20
-87.21479158065632
 30
0.0
 10
116.4083125784447
 20
-91.42926378457496
 30
0.0
 10
120.1572281298294
 20
-92.50798674601783
 30
0.0
 10
120.7531872399893
 20
-94.16131492454473
 30
0.0
 10
118.4881678361847
 20
-94.41050909568125
 30
0.0
 10
119.0521309263016
 20
-95.70989950362402
 30
0.0
 10
120.5917510486377
 20
-99.25720340991904
 30
0.0
 10
120.0826256169319
 20
-102.8529001886335
 30
0.0
 10
118.5145294166078
 20
-106.0371689201497
 30
0.0
 10
116.9994096103709
 20
-109.1138831632394
 30
0.0
 10
118.4646044830784
 20
-110.2772366739363
 30
0.0
 10
120.98157830035
 20
-111.3959451641859
 30
0.0
 10
119.0782012884972
 20
-113.8717432564167
 30
0.0
 10
116.9366330898439
 20
-116.0670855338678
 30
0.0
 10
117.7909660761385
 20
-119.3661955403297
 30
0.0
  0
SPLINE
  5
53
330
41
100
AcDbEntity
  8
Laag 1
 62
     7
370
   140
100
AcDbSpline
210
0.0
220
0.0
230
1.0
 70
     8
 71
     3
 72
    41
 73
    37
 74
     0
 42
0.0000000001
 43
0.0000000001
 12
1.0
 22
0.0
 32
0.0
 13
1.0
 23
0.0
 33
0.0
 40
0.0
 40
0.0
 40
0.0
 40
0.0
 40
1.0
 40
1.0
 40
1.0
 40
2.0
 40
2.0
 40
2.0
 40
3.0
 40
3.0
 40
3.0
 40
4.0
 40
4.0
 40
4.0
 40
5.0
 40
5.0
 40
5.0
 40
6.0
 40
6.0
 40
6.0
 40
7.0
 40
7.0
 40
7.0
 40
8.0
 40
8.0
 40
8.0
 40
9.0
 40
9.0
 40
9.0
 40
10.0
 40
10.0
 40
10.0
 40
11.0
 40
11.0
 40
11.0
 40
12.0
 40
12.0
 40
12.0
 40
12.0
 10
384.9848547135796
 20
-109.4086593178163
 30
0.0
 10
387.3433171834378
 20
-112.0363467082003
 30
0.0
 10
386.5185365164061
 20
-115.2354549076589
 30
0.0
 10
384.8268118476618
 20
-117.1522279579785
 30
0.0
 10
382.5275806329528
 20
-119.7573016199111
 30
0.0
 10
380.9389978634047
 20
-123.0211868825031
 30
0.0
 10
377.5724391831129
 20
-124.861800035491
 30
0.0
 10
373.3838094314726
 20
-127.1518768685257
 30
0.0
 10
372.4781207438346
 20
-129.8958869483173
 30
0.0
 10
376.0852003567472
 20
-133.669581372367
 30
0.0
 10
380.1072786055611
 20
-137.8774568503489
 30
0.0
 10
379.5667269286051
 20
-143.1034312517977
 30
0.0
 10
381.3986921664016
 20
-147.6859399870119
 30
0.0
 10
382.6696444813423
 20
-150.8650807453909
 30
0.0
 10
383.8863542359888
 20
-152.3656776252369
 30
0.0
 10
387.058860283445
 20
-152.5655546226235
 30
0.0
 10
389.6198080530746
 20
-152.7268895206786
 30
0.0
 10
392.6425266382807
 20
-151.4376790890375
 30
0.0
 10
393.4630783101811
 20
-155.8435829617442
 30
0.0
 10
393.8103117307009
 20
-157.7080380244037
 30
0.0
 10
396.6826604172018
 20
-156.83686502756
 30
0.0
 10
398.2464263290988
 20
-156.6049287018205
 30
0.0
 10
401.1441743097058
 20
-156.1751539062873
 30
0.0
 10
404.7113190404594
 20
-156.7489677694923
 30
0.0
 10
406.1462905258132
 20
-152.9735133744155
 30
0.0
 10
407.5021012999259
 20
-149.4063179970134
 30
0.0
 10
404.3750506192898
 20
-144.0220095114196
 30
0.0
 10
400.7499914462422
 20
-143.8675625575287
 30
0.0
 10
397.2159949467789
 20
-143.7170153955546
 30
0.0
 10
393.6678427091255
 20
-144.5169792049346
 30
0.0
 10
390.2990049296619
 20
-142.306759474555
 30
0.0
 10
389.0391442306915
 20
-141.4801935131723
 30
0.0
 10
386.4445924099365
 20
-141.9041819291411
 30
0.0
 10
385.9272115745628
 20
-143.8746910732724
 30
0.0
 10
385.3342406166511
 20
-146.1330884278159
 30
0.0
 10
383.3976900501831
 20
-146.1394065971873
 30
0.0
 10
382.0805733153465
 20
-147.164317494846
 30
0.0
  0
SPLINE
  5
54
330
41
100
AcDbEntity
  8
Laag 1
 62
     7
370
    70
100
AcDbSpline
210
0.0
220
0.0
230
1.0
 70
     8
 71
     3
 72
    41
 73
    37
 74
     0
 42
0.0000000001
 43
0.0000000001
 12
1.0
 22
0.0
 32
0.0
 13
1.0
 23
0.0
 33
0.0
 40
0.0
 40
0.0
 40
0.0
 40
0.0
 40
1.0
 40
1.0
 40
1.0
 40
2.0
 40
2.0
 40
2.0
 40
3.0
 40
3.0
 40
3.0
 40
4.0
 40
4.0
 40
4.0
 40
5.0
 40
5.0
 40
5.0
 40
6.0
 40
6.0
 40
6.0
 40
7.0
 40
7.0
 40
7.0
 40
8.0
 40
8.0
 40
8.0
 40
9.0
 40
9.0
 40
9.0
 40
10.0
 40
10.0
 40
10.0
 40
11.0
 40
11.0
 40
11.0
 40
12.0
 40
12.0
 40
12.0
 40
12.0
 10
318.1863825542194
 20
-97.79153372488429
 30
0.0
 10
315.2854185114476
 20
-97.74053888091017
 30
0.0
 10
313.0918868516724
 20
-98.611332027892
 30
0.0
 10
312.7959331625228
 20
-101.940792038328
 30
0.0
 10
312.7715214780583
 20
-102.2152209019635
 30
0.0
 10
312.8744861139853
 20
-102.7036635086835
 30
0.0
 10
312.7809417546362
 20
-102.7400847796185
 30
0.0
 10
308.7725887475029
 20
-104.301014479213
 30
0.0
 10
309.0179464350331
 20
-109.0252135437857
 30
0.0
 10
306.2205041413198
 20
-111.5562671292759
 30
0.0
 10
304.9841181638216
 20
-112.6749123112151
 30
0.0
 10
303.4820145461887
 20
-114.3416808440259
 30
0.0
 10
305.1919973316338
 20
-116.8812304047628
 30
0.0
 10
307.7273178972407
 20
-115.5670891605123
 30
0.0
 10
309.3784239540744
 20
-119.8007057974758
 30
0.0
 10
311.9031593701932
 20
-118.4265862600151
 30
0.0
 10
314.6614264814718
 20
-116.9253562970655
 30
0.0
 10
316.1797876731981
 20
-119.7812321612173
 30
0.0
 10
318.6180439374011
 20
-119.5270746185504
 30
0.0
 10
320.746849180691
 20
-119.3051536675057
 30
0.0
 10
321.6615276483962
 20
-122.8787178609274
 30
0.0
 10
319.8008964076808
 20
-124.7141777174541
 30
0.0
 10
315.8203484104463
 20
-128.640926312567
 30
0.0
 10
314.1812709325752
 20
-133.0131881491623
 30
0.0
 10
316.0889275862066
 20
-138.4595134555594
 30
0.0
 10
316.2615313635017
 20
-138.952267358213
 30
0.0
 10
316.318610136098
 20
-139.9233915154118
 30
0.0
 10
316.081558498884
 20
-140.0574278700508
 30
0.0
 10
310.6323336718732
 20
-143.1389851988812
 30
0.0
 10
313.470521194118
 20
-149.9240786822487
 30
0.0
 10
308.7757288396949
 20
-154.1203434161156
 30
0.0
 10
307.488898800523
 20
-153.9519433106272
 30
0.0
 10
304.4359188429772
 20
-155.4229498862231
 30
0.0
 10
304.419585298911
 20
-150.898659473192
 30
0.0
 10
304.417584756305
 20
-150.3434709148871
 30
0.0
 10
303.3883688935431
 20
-149.79200488523
 30
0.0
 10
302.835180877845
 20
-149.2388042078698
 30
0.0
  0
SPLINE
  5
55
330
41
100
AcDbEntity
  8
Laag 1
 62
     7
370
    70
100
AcDbSpline
210
0.0
220
0.0
230
1.0
 70
     8
 71
     3
 72
    29
 73
    25
 74
     0
 42
0.0000000001
 43
0.0000000001
 12
1.0
 22
0.0
 32
0.0
 13
1.0
 23
0.0
 33
0.0
 40
0.0
 40
0.0
 40
0.0
 40
0.0
 40
1.0
 40
1.0
 40
1.0
 40
2.0
 40
2.0
 40
2.0
 40
3.0
 40
3.0
 40
3.0
 40
4.0
 40
4.0
 40
4.0
 40
5.0
 40
5.0
 40
5.0
 40
6.0
 40
6.0
 40
6.0
 40
7.0
 40
7.0
 40
7.0
 40
8.0
 40
8.0
 40
8.0
 40
8.0
 10
376.6869078614852
 20
-138.0365759575423
 30
0.0
 10
373.330048014337
 20
-142.5693750074823
 30
0.0
 10
367.6355667930924
 20
-143.5348773867237
 30
0.0
 10
363.3606857994528
 20
-146.6821614033427
 30
0.0
 10
362.9420659282009
 20
-146.9903462580485
 30
0.0
 10
362.0910502973672
 20
-147.0226461579807
 30
0.0
 10
361.7664812519474
 20
-147.5883185724769
 30
0.0
 10
358.7011688355489
 20
-152.9311221298159
 30
0.0
 10
353.3098837741558
 20
-151.9987933051897
 30
0.0
 10
348.4730528946681
 20
-152.5506518463708
 30
0.0
 10
347.5383690008969
 20
-152.6572883642973
 30
0.0
 10
346.6005956615823
 20
-152.6976790662904
 30
0.0
 10
345.9803768069022
 20
-151.7308345508699
 30
0.0
 10
344.1082994236786
 20
-148.8123720911221
 30
0.0
 10
341.5326134794025
 20
-149.148222677444
 30
0.0
 10
339.3954008925005
 20
-150.9565865771476
 30
0.0
 10
334.5054923256281
 20
-155.094037890714
 30
0.0
 10
328.5399249195342
 20
-153.0188168012905
 30
0.0
 10
323.1634793260835
 20
-154.2100766151829
 30
0.0
 10
322.8998381985289
 20
-154.268497523959
 30
0.0
 10
322.4365479835044
 20
-154.3252470933426
 30
0.0
 10
322.3608818909938
 20
-154.2019098431498
 30
0.0
 10
320.1618044232322
 20
-150.6194191779711
 30
0.0
 10
315.6456681205723
 20
-151.5269311449462
 30
0.0
 10
312.7927171003581
 20
-149.2388042078698
 30
0.0
  0
SPLINE
  5
56
330
41
100
AcDbEntity
  8
Laag 1
 62
     7
370
    70
100
AcDbSpline
210
0.0
220
0.0
230
1.0
 70
     8
 71
     3
 72
    38
 73
    34
 74
     0
 42
0.0000000001
 43
0.0000000001
 12
1.0
 22
0.0
 32
0.0
 13
1.0
 23
0.0
 33
0.0
 40
0.0
 40
0.0
 40
0.0
 40
0.0
 40
1.0
 40
1.0
 40
1.0
 40
2.0
 40
2.0
 40
2.0
 40
3.0
 40
3.0
 40
3.0
 40
4.0
 40
4.0
 40
4.0
 40
5.0
 40
5.0
 40
5.0
 40
6.0
 40
6.0
 40
6.0
 40
7.0
 40
7.0
 40
7.0
 40
8.0
 40
8.0
 40
8.0
 40
9.0
 40
9.0
 40
9.0
 40
10.0
 40
10.0
 40
10.0
 40
11.0
 40
11.0
 40
11.0
 40
11.0
 10
382.9103680005561
 20
-236.3672461548615
 30
0.0
 10
386.3852851848158
 20
-236.4257177102858
 30
0.0
 10
389.8083148779251
 20
-236.3902650564987
 30
0.0
 10
393.3219007781366
 20
-236.9529493187469
 30
0.0
 10
395.9416999530526
 20
-237.3724808296682
 30
0.0
 10
399.3762011119951
 20
-236.8649254440587
 30
0.0
 10
401.8828809980068
 20
-233.995134413296
 30
0.0
 10
399.0525943528918
 20
-233.1025632075593
 30
0.0
 10
398.3909971865774
 20
-231.4381117589064
 30
0.0
 10
399.8433404722875
 20
-228.8553352838734
 30
0.0
 10
400.2244565004977
 20
-228.1775565134378
 30
0.0
 10
400.9096803282288
 20
-227.0035925299288
 30
0.0
 10
399.9303767373348
 20
-225.9859241029723
 30
0.0
 10
398.1404735409242
 20
-224.1259259453606
 30
0.0
 10
400.2341553336414
 20
-222.9085577842862
 30
0.0
 10
400.5707782813489
 20
-220.6260906101534
 30
0.0
 10
402.707889574955
 20
-223.6592424049026
 30
0.0
 10
405.335665596973
 20
-223.110182091038
 30
0.0
 10
407.8040312935707
 20
-223.07723644634
 30
0.0
 10
414.6904307351344
 20
-222.9853381030597
 30
0.0
 10
418.3235427252562
 20
-225.6238005678622
 30
0.0
 10
417.4142074789432
 20
-233.056297494367
 30
0.0
 10
417.0141242809571
 20
-236.3265515729787
 30
0.0
 10
417.5548025745333
 20
-239.7035181394893
 30
0.0
 10
417.2836150963868
 20
-243.0004123550894
 30
0.0
 10
417.0504126044407
 20
-245.8354597851415
 30
0.0
 10
420.0696112475919
 20
-246.2875570908986
 30
0.0
 10
420.7575193476806
 20
-248.7291560338865
 30
0.0
 10
419.4060641853193
 20
-251.1652598155378
 30
0.0
 10
417.6880792294486
 20
-253.9596379870313
 30
0.0
 10
420.675193220922
 20
-256.6871879061358
 30
0.0
 10
422.654894731714
 20
-258.4948174294399
 30
0.0
 10
424.8791689069875
 20
-258.9499282107689
 30
0.0
 10
427.3043836592613
 20
-257.5270106277021
 30
0.0
  0
SPLINE
  5
57
330
41
100
AcDbEntity
  8
Laag 1
 62
     7
370
    70
100
AcDbSpline
210
0.0
220
0.0
230
1.0
 70
     8
 71
     3
 72
    20
 73
    16
 74
     0
 42
0.0000000001
 43
0.0000000001
 12
1.0
 22
0.0
 32
0.0
 13
1.0
 23
0.0
 33
0.0
 40
0.0
 40
0.0
 40
0.0
 40
0.0
 40
1.0
 40
1.0
 40
1.0
 40
2.0
 40
2.0
 40
2.0
 40
3.0
 40
3.0
 40
3.0
 40
4.0
 40
4.0
 40
4.0
 40
5.0
 40
5.0
 40
5.0
 40
5.0
 10
72.98204674399774
 20
-142.6004467261943
 30
0.0
 10
72.29055539354387
 20
-142.0472587104958
 30
0.0
 10
71.39422367417335
 20
-141.6254227770785
 30
0.0
 10
70.94130336038215
 20
-140.919218575303
 30
0.0
 10
68.3001376307278
 20
-136.8010383114024
 30
0.0
 10
67.35120936713216
 20
-136.5713430998487
 30
0.0
 10
62.93616377441327
 20
-139.3365994485883
 30
0.0
 10
63.2690388701491
 20
-140.3977353614202
 30
0.0
 10
63.60978951969077
 20
-141.4839793501304
 30
0.0
 10
63.94266461542691
 20
-142.5451152629623
 30
0.0
 10
58.46290619034234
 20
-145.9772233677738
 30
0.0
 10
58.14056559744572
 20
-146.0462927343483
 30
0.0
 10
52.13895360486296
 20
-145.0739150726047
 30
0.0
 10
50.42394097416205
 20
-146.9875986773799
 30
0.0
 10
52.38118386186267
 20
-149.8280019904861
 30
0.0
 10
50.57759657417348
 20
-151.728188263498
 30
0.0
  0
SPLINE
  5
58
330
41
100
AcDbEntity
  8
Laag 1
 62
     7
370
    70
100
AcDbSpline
210
0.0
220
0.0
230
1.0
 70
     8
 71
     3
 72
    29
 73
    25
 74
     0
 42
0.0000000001
 43
0.0000000001
 12
1.0
 22
0.0
 32
0.0
 13
1.0
 23
0.0
 33
0.0
 40
0.0
 40
0.0
 40
0.0
 40
0.0
 40
1.0
 40
1.0
 40
1.0
 40
2.0
 40
2.0
 40
2.0
 40
3.0
 40
3.0
 40
3.0
 40
4.0
 40
4.0
 40
4.0
 40
5.0
 40
5.0
 40
5.0
 40
6.0
 40
6.0
 40
6.0
 40
7.0
 40
7.0
 40
7.0
 40
8.0
 40
8.0
 40
8.0
 40
8.0
 10
345.1547098235267
 20
-216.03727636723
 30
0.0
 10
345.9944565751202
 20
-218.5266604228582
 30
0.0
 10
343.6521757093844
 20
-220.9238422553162
 30
0.0
 10
345.0296632489549
 20
-223.5705094771385
 30
0.0
 10
345.3724144411033
 20
-224.2290678445562
 30
0.0
 10
344.1067293775819
 20
-225.5576813685496
 30
0.0
 10
342.6658322343807
 20
-225.5981480405146
 30
0.0
 10
341.1280733763685
 20
-225.6412989848385
 30
0.0
 10
340.4678183462335
 20
-226.7015865663118
 30
0.0
 10
340.0934383222423
 20
-227.9497478895325
 30
0.0
 10
341.3471707767724
 20
-229.7677093290825
 30
0.0
 10
343.3696687053498
 20
-228.3448677159885
 30
0.0
 10
344.5506219263199
 20
-228.9833446873687
 30
0.0
 10
346.8814060028995
 20
-232.9455332746067
 30
0.0
 10
343.4261143948437
 20
-234.9595732129234
 30
0.0
 10
341.6862754102453
 20
-236.1489084541813
 30
0.0
 10
338.8963288204753
 20
-238.0561346113026
 30
0.0
 10
338.4423829120571
 20
-240.2026408581624
 30
0.0
 10
338.5244811288979
 20
-242.971847645467
 30
0.0
 10
336.2700975212296
 20
-243.1472623117404
 30
0.0
 10
333.9523296332542
 20
-243.4438744073173
 30
0.0
 10
333.4555366604015
 20
-240.157033551398
 30
0.0
 10
331.7725991851314
 20
-241.1023279179809
 30
0.0
 10
329.9686415438271
 20
-241.2345409932819
 30
0.0
 10
330.2184054897565
 20
-243.4205009791415
 30
0.0
  0
SPLINE
  5
59
330
41
100
AcDbEntity
  8
Laag 1
 62
     7
370
    70
100
AcDbSpline
210
0.0
220
0.0
230
1.0
 70
     8
 71
     3
 72
    77
 73
    73
 74
     0
 42
0.0000000001
 43
0.0000000001
 12
1.0
 22
0.0
 32
0.0
 13
1.0
 23
0.0
 33
0.0
 40
0.0
 40
0.0
 40
0.0
 40
0.0
 40
1.0
 40
1.0
 40
1.0
 40
2.0
 40
2.0
 40
2.0
 40
3.0
 40
3.0
 40
3.0
 40
4.0
 40
4.0
 40
4.0
 40
5.0
 40
5.0
 40
5.0
 40
6.0
 40
6.0
 40
6.0
 40
7.0
 40
7.0
 40
7.0
 40
8.0
 40
8.0
 40
8.0
 40
9.0
 40
9.0
 40
9.0
 40
10.0
 40
10.0
 40
10.0
 40
11.0
 40
11.0
 40
11.0
 40
12.0
 40
12.0
 40
12.0
 40
13.0
 40
13.0
 40
13.0
 40
14.0
 40
14.0
 40
14.0
 40
15.0
 40
15.0
 40
15.0
 40
16.0
 40
16.0
 40
16.0
 40
17.0
 40
17.0
 40
17.0
 40
18.0
 40
18.0
 40
18.0
 40
19.0
 40
19.0
 40
19.0
 40
20.0
 40
20.0
 40
20.0
 40
21.0
 40
21.0
 40
21.0
 40
22.0
 40
22.0
 40
22.0
 40
23.0
 40
23.0
 40
23.0
 40
24.0
 40
24.0
 40
24.0
 40
24.0
 10
279.1860323493755
 20
-101.1107124657219
 30
0.0
 10
276.9288631760525
 20
-100.4448103343052
 30
0.0
 10
276.3487817901238
 20
-97.76640032568174
 30
0.0
 10
274.0530958407939
 20
-96.85997093081285
 30
0.0
 10
270.5437389357124
 20
-97.6962420561696
 30
0.0
 10
268.1151815046531
 20
-100.7978048110653
 30
0.0
 10
264.4520613754329
 20
-102.1518872683056
 30
0.0
 10
263.6277618515606
 20
-98.73089610278875
 30
0.0
 10
261.2564098097188
 20
-98.9896498287857
 30
0.0
 10
258.8719909326243
 20
-99.90742407286606
 30
0.0
 10
257.0107012854817
 20
-100.6238525667606
 30
0.0
 10
254.9098783153585
 20
-101.3723593815014
 30
0.0
 10
253.9443506127931
 20
-103.2202339976844
 30
0.0
 10
252.9702383033463
 20
-105.084518127906
 30
0.0
 10
251.7880695628181
 20
-104.5785644425479
 30
0.0
 10
250.5732590574819
 20
-103.9840740851879
 30
0.0
 10
249.1919223726423
 20
-103.3080869399347
 30
0.0
 10
247.8941273341202
 20
-103.3556504734886
 30
0.0
 10
246.4292490029644
 20
-103.2671454556418
 30
0.0
 10
243.3207603189184
 20
-103.0793476838671
 30
0.0
 10
240.4032094988393
 20
-102.7338362493886
 30
0.0
 10
237.2319696175901
 20
-103.3425646457426
 30
0.0
 10
236.3089850995689
 20
-103.5197329522124
 30
0.0
 10
234.8505388927431
 20
-103.1699735301104
 30
0.0
 10
233.5262303338529
 20
-103.5203407119915
 30
0.0
 10
232.679848871336
 20
-103.7442622056429
 30
0.0
 10
231.417582456573
 20
-104.0880136690943
 30
0.0
 10
230.6595793952825
 20
-103.1715119220513
 30
0.0
 10
227.3781577307277
 20
-99.20378385765919
 30
0.0
 10
221.6867659550279
 20
-99.40398372742831
 30
0.0
 10
218.1317257732099
 20
-95.78022237474298
 30
0.0
 10
216.4622223213926
 20
-94.0784190229931
 30
0.0
 10
213.155008851208
 20
-95.96015725437393
 30
0.0
 10
213.0541080661974
 20
-96.5873273615287
 30
0.0
 10
212.6482258269844
 20
-99.11006856587187
 30
0.0
 10
209.9090904870885
 20
-100.0780779542023
 30
0.0
 10
209.798858057135
 20
-102.7662311117862
 30
0.0
 10
209.6532742666909
 20
-106.3164661928499
 30
0.0
 10
206.0552604038182
 20
-105.4141265148288
 30
0.0
 10
204.0459559271147
 20
-105.9139582865778
 30
0.0
 10
201.7027634217096
 20
-106.4968378998227
 30
0.0
 10
201.0453825888636
 20
-107.1523637991756
 30
0.0
 10
201.5533811326453
 20
-109.4191558356697
 30
0.0
 10
201.8189848178204
 20
-110.604325390108
 30
0.0
 10
201.5990390860582
 20
-111.8980433734449
 30
0.0
 10
201.600469853872
 20
-113.142735401259
 30
0.0
 10
201.6036732543747
 20
-115.9285036425469
 30
0.0
 10
202.2770837513971
 20
-119.0929821962525
 30
0.0
 10
197.4050028047153
 20
-116.9836505892211
 30
0.0
 10
195.0709900043087
 20
-115.9731739863183
 30
0.0
 10
194.4385906307206
 20
-118.3335610288104
 30
0.0
 10
194.1426622648953
 20
-120.1976742265942
 30
0.0
 10
193.4735187479896
 20
-124.4126908819818
 30
0.0
 10
192.476754725105
 20
-128.4857323206142
 30
0.0
 10
189.0932800642923
 20
-131.9406947254564
 30
0.0
 10
192.4740831144092
 20
-133.6873963308949
 30
0.0
 10
192.4313626665957
 20
-137.0408375292853
 30
0.0
 10
191.4130105098876
 20
-139.1714913752373
 30
0.0
 10
190.2426044534192
 20
-141.6202441572934
 30
0.0
 10
187.9474502938956
 20
-144.2572885159446
 30
0.0
 10
184.1680961069021
 20
-143.4608193252949
 30
0.0
 10
182.2688594585453
 20
-143.0605588640395
 30
0.0
 10
180.5313502197672
 20
-146.1412172148629
 30
0.0
 10
178.2362846918779
 20
-143.5448800997564
 30
0.0
 10
177.4773699909184
 20
-142.6863181183311
 30
0.0
 10
176.7877525664505
 20
-144.3131264456592
 30
0.0
 10
176.6663019039056
 20
-145.5006257459175
 30
0.0
 10
176.4710843981598
 20
-147.4093713024868
 30
0.0
 10
177.3155286263807
 20
-149.0919036045708
 30
0.0
 10
177.7387826659493
 20
-150.7481502962039
 30
0.0
 10
176.0903228964871
 20
-152.4573733819246
 30
0.0
 10
174.2143963679951
 20
-151.4359697646586
 30
0.0
 10
172.5574152999619
 20
-151.728188263498
 30
0.0
  0
SPLINE
  5
5A
330
41
100
AcDbEntity
  8
Laag 1
 62
     7
370
    70
100
AcDbSpline
210
0.0
220
0.0
230
1.0
 70
     8
 71
     3
 72
    32
 73
    28
 74
     0
 42
0.0000000001
 43
0.0000000001
 12
1.0
 22
0.0
 32
0.0
 13
1.0
 23
0.0
 33
0.0
 40
0.0
 40
0.0
 40
0.0
 40
0.0
 40
1.0
 40
1.0
 40
1.0
 40
2.0
 40
2.0
 40
2.0
 40
3.0
 40
3.0
 40
3.0
 40
4.0
 40
4.0
 40
4.0
 40
5.0
 40
5.0
 40
5.0
 40
6.0
 40
6.0
 40
6.0
 40
7.0
 40
7.0
 40
7.0
 40
8.0
 40
8.0
 40
8.0
 40
9.0
 40
9.0
 40
9.0
 40
9.0
 10
115.716479363115
 20
-120.1959902255393
 30
0.0
 10
118.6955531991767
 20
-119.0801052859305
 30
0.0
 10
121.5877933567843
 20
-118.3766486648237
 30
0.0
 10
123.5267369773828
 20
-122.0156356661443
 30
0.0
 10
122.3311215517396
 20
-124.5166304658879
 30
0.0
 10
120.4828734165255
 20
-126.7033754747958
 30
0.0
 10
124.3056317810837
 20
-129.4932207712691
 30
0.0
 10
127.9265126056489
 20
-132.1357476295954
 30
0.0
 10
127.8187871847847
 20
-138.6419173592936
 30
0.0
 10
124.3208131139018
 20
-141.6442253452479
 30
0.0
 10
121.5071132460945
 20
-144.0591841512476
 30
0.0
 10
119.3842209989895
 20
-147.3110281732141
 30
0.0
 10
115.3749310288632
 20
-148.6316775117671
 30
0.0
 10
113.0809797272359
 20
-149.3872875189271
 30
0.0
 10
111.5238991729099
 20
-152.3799726417106
 30
0.0
 10
109.5109418066997
 20
-154.4959136363409
 30
0.0
 10
107.3252223924194
 20
-152.8887941935267
 30
0.0
 10
104.8553309655429
 20
-152.0353601852387
 30
0.0
 10
104.4053988039993
 20
-148.8392274763659
 30
0.0
 10
104.1893148791673
 20
-147.3042921689945
 30
0.0
 10
102.937747568851
 20
-146.3087943123169
 30
0.0
 10
100.7462037900198
 20
-147.0659996888976
 30
0.0
 10
98.37783990042601
 20
-147.8843229082744
 30
0.0
 10
95.8785987408787
 20
-149.284373529648
 30
0.0
 10
93.19052155326693
 20
-146.8855710044455
 30
0.0
 10
92.24797476735269
 20
-146.0444567933484
 30
0.0
 10
89.87462218290455
 20
-146.5932638739715
 30
0.0
 10
88.3332547512032
 20
-147.5792148374508
 30
0.0
  0
SPLINE
  5
5B
330
41
100
AcDbEntity
  8
Laag 1
 62
     7
370
    70
100
AcDbSpline
210
0.0
220
0.0
230
1.0
 70
     8
 71
     3
 72
    20
 73
    16
 74
     0
 42
0.0000000001
 43
0.0000000001
 12
1.0
 22
0.0
 32
0.0
 13
1.0
 23
0.0
 33
0.0
 40
0.0
 40
0.0
 40
0.0
 40
0.0
 40
1.0
 40
1.0
 40
1.0
 40
2.0
 40
2.0
 40
2.0
 40
3.0
 40
3.0
 40
3.0
 40
4.0
 40
4.0
 40
4.0
 40
5.0
 40
5.0
 40
5.0
 40
5.0
 10
315.6969984985911
 20
-97.79154005571536
 30
0.0
 10
315.4203918290802
 20
-97.37664271311054
 30
0.0
 10
315.1114219513258
 20
-96.9794780282303
 30
0.0
 10
314.8726483280709
 20
-96.54385987565327
 30
0.0
 10
313.6544444972999
 20
-94.3210481223482
 30
0.0
 10
311.535287440505
 20
-94.10129864634811
 30
0.0
 10
309.4869850446351
 20
-94.53579624183212
 30
0.0
 10
307.1020090544098
 20
-95.04171194220385
 30
0.0
 10
308.0136740465431
 20
-97.47999986056186
 30
0.0
 10
307.7282042135851
 20
-99.44310193238377
 30
0.0
 10
302.5064334839424
 20
-99.6179341622021
 30
0.0
 10
298.4450281127494
 20
-95.24716007089985
 30
0.0
 10
293.7397519021353
 20
-96.27921847679505
 30
0.0
 10
289.3019659643443
 20
-97.2526027406731
 30
0.0
 10
285.1328858189356
 20
-99.45112309530323
 30
0.0
 10
280.8456217197942
 20
-101.1107124657219
 30
0.0
  0
SPLINE
  5
5C
330
41
100
AcDbEntity
  8
Laag 1
 62
     7
370
    70
100
AcDbSpline
210
0.0
220
0.0
230
1.0
 70
     8
 71
     3
 72
     8
 73
     4
 74
     0
 42
0.0000000001
 43
0.0000000001
 12
1.0
 22
0.0
 32
0.0
 13
1.0
 23
0.0
 33
0.0
 40
0.0
 40
0.0
 40
0.0
 40
0.0
 40
1.0
 40
1.0
 40
1.0
 40
1.0
 10
231.4728379498325
 20
-287.3996192952425
 30
0.0
 10
233.0293107443794
 20
-289.7996626633274
 30
0.0
 10
235.0287897713195
 20
-292.0831680937495
 30
0.0
 10
233.5473246628562
 20
-295.2826688047321
 30
0.0
  0
SPLINE
  5
5D
330
41
100
AcDbEntity
  8
Laag 1
 62
     7
370
    70
100
AcDbSpline
210
0.0
220
0.0
230
1.0
 70
     8
 71
     3
 72
    32
 73
    28
 74
     0
 42
0.0000000001
 43
0.0000000001
 12
1.0
 22
0.0
 32
0.0
 13
1.0
 23
0.0
 33
0.0
 40
0.0
 40
0.0
 40
0.0
 40
0.0
 40
1.0
 40
1.0
 40
1.0
 40
2.0
 40
2.0
 40
2.0
 40
3.0
 40
3.0
 40
3.0
 40
4.0
 40
4.0
 40
4.0
 40
5.0
 40
5.0
 40
5.0
 40
6.0
 40
6.0
 40
6.0
 40
7.0
 40
7.0
 40
7.0
 40
8.0
 40
8.0
 40
8.0
 40
9.0
 40
9.0
 40
9.0
 40
9.0
 10
231.0579406072279
 20
-125.1747583367958
 30
0.0
 10
230.0310291669625
 20
-125.7693246641283
 30
0.0
 10
228.9636510547318
 20
-126.0194178132717
 30
0.0
 10
227.7392683328727
 20
-126.037878516565
 30
0.0
 10
222.1633255918979
 20
-126.1219392910265
 30
0.0
 10
218.8078332042524
 20
-129.1429105668673
 30
0.0
 10
219.168487986563
 20
-134.7081542033957
 30
0.0
 10
219.4074388730875
 20
-138.3951162422878
 30
0.0
 10
215.3184690635748
 20
-137.2520213908976
 30
0.0
 10
214.7479219091832
 20
-140.4220457525884
 30
0.0
 10
221.0036439632
 20
-140.1102016775452
 30
0.0
 10
223.8224338191582
 20
-146.8544106540992
 30
0.0
 10
230.2094319854836
 20
-147.3882769734835
 30
0.0
 10
233.7379333236096
 20
-147.6832303913297
 30
0.0
 10
236.5126605955754
 20
-146.7936473378406
 30
0.0
 10
239.3224353481418
 20
-145.4354941562461
 30
0.0
 10
241.5460257936641
 20
-144.3606583250577
 30
0.0
 10
241.0392301077786
 20
-141.6081775933436
 30
0.0
 10
240.3762148353129
 20
-140.2180790383544
 30
0.0
 10
239.8535161018714
 20
-139.1221615398252
 30
0.0
 10
239.6120582062575
 20
-137.7946875654183
 30
0.0
 10
239.1200260183419
 20
-136.7106213825835
 30
0.0
 10
237.557450302679
 20
-133.2678648199736
 30
0.0
 10
235.8550138678261
 20
-129.6390957799407
 30
0.0
 10
237.5857871023845
 20
-125.1747583367958
 30
0.0
 10
235.0892112227023
 20
-125.1747583367958
 30
0.0
 10
233.2810245862674
 20
-125.1747583367958
 30
0.0
 10
231.4728379498325
 20
-125.1747583367958
 30
0.0
  0
ENDBLK
  5
44
330
41
100
AcDbEntity
  8
0
100
AcDbBlockEnd
  0
ENDSEC
  0
SECTION
  2
ENTITIES
  0
INSERT
  5
42
330
1F
100
AcDbEntity
  8
Laag 1
100
AcDbBlockReference
  2
block 2
 10
0.0
 20
0.0
 30
0.0
  0
ENDSEC
  0
SECTION
  2
OBJECTS
  0
DICTIONARY
  5
C
330
0
100
AcDbDictionary
281
     1
  3
ACAD_GROUP
350
D
  3
ACAD_LAYOUT
350
1A
  3
ACAD_MATERIAL
350
3B
  3
ACAD_MLEADERSTYLE
350
60
  3
ACAD_MLINESTYLE
350
17
  3
ACAD_PLOTSETTINGS
350
19
  3
ACAD_PLOTSTYLENAME
350
E
  3
ACAD_VISUALSTYLE
350
2A
  3
AcDbVariableDictionary
350
5E
  0
DICTIONARY
  5
D
102
{ACAD_REACTORS
330
C
102
}
330
C
100
AcDbDictionary
281
     1
  0
DICTIONARY
  5
1A
102
{ACAD_REACTORS
330
C
102
}
330
C
100
AcDbDictionary
281
     1
  3
Layout1
350
1E
  3
Layout2
350
26
  3
Model
350
22
  0
DICTIONARY
  5
3B
102
{ACAD_REACTORS
330
C
102
}
330
C
100
AcDbDictionary
281
     1
  3
ByBlock
350
3D
  3
ByLayer
350
3C
  3
Global
350
3E
  0
DICTIONARY
  5
60
102
{ACAD_REACTORS
330
C
102
}
330
C
100
AcDbDictionary
281
     1
  0
DICTIONARY
  5
17
102
{ACAD_REACTORS
330
C
102
}
330
C
100
AcDbDictionary
281
     1
  3
Standard
350
18
  0
DICTIONARY
  5
19
102
{ACAD_REACTORS
330
C
102
}
330
C
100
AcDbDictionary
281
     1
  0
ACDBDICTIONARYWDFLT
  5
E
102
{ACAD_REACTORS
330
C
102
}
330
C
100
AcDbDictionary
281
     1
  3
Normal
350
F
100
AcDbDictionaryWithDefault
340
F
  0
DICTIONARY
  5
2A
102
{ACAD_REACTORS
330
C
102
}
330
C
100
AcDbDictionary
281
     1
  3
2dWireframe
350
2F
  3
3D Hidden
350
31
  3
3dWireframe
350
30
  3
Basic
350
32
  3
Brighten
350
36
  3
ColorChange
350
3A
  3
Conceptual
350
34
  3
Dim
350
35
  3
Facepattern
350
39
  3
Flat
350
2B
  3
FlatWithEdges
350
2C
  3
Gouraud
350
2D
  3
GouraudWithEdges
350
2E
  3
Linepattern
350
38
  3
Realistic
350
33
  3
Thicken
350
37
  0
DICTIONARY
  5
5E
102
{ACAD_REACTORS
330
C
102
}
330
C
100
AcDbDictionary
281
     1
  3
DIMASSOC
350
61
  3
HIDETEXT
350
62
  0
LAYOUT
  5
1E
102
{ACAD_REACTORS
330
1A
102
}
330
1A
100
AcDbPlotSettings
  1

  2
none_device
  4

  6

 40
0.0
 41
0.0
 42
0.0
 43
0.0
 44
0.0
 45
0.0
 46
0.0
 47
0.0
 48
0.0
 49
0.0
140
0.0
141
0.0
142
1.0
143
1.0
 70
   688
 72
     0
 73
     0
 74
     5
  7

 75
    16
147
1.0
148
0.0
149
0.0
100
AcDbLayout
  1
Layout1
 70
     1
 71
     1
 10
0.0
 20
0.0
 11
12.0
 21
9.0
 12
0.0
 22
0.0
 32
0.0
 14
1.000000000000000E+20
 24
1.000000000000000E+20
 34
1.000000000000000E+20
 15
-1.000000000000000E+20
 25
-1.000000000000000E+20
 35
-1.000000000000000E+20
146
0.0
 13
0.0
 23
0.0
 33
0.0
 16
1.0
 26
0.0
 36
0.0
 17
0.0
 27
1.0
 37
0.0
 76
     0
330
1B
  0
LAYOUT
  5
26
102
{ACAD_REACTORS
330
1A
102
}
330
1A
100
AcDbPlotSettings
  1

  2
none_device
  4

  6

 40
0.0
 41
0.0
 42
0.0
 43
0.0
 44
0.0
 45
0.0
 46
0.0
 47
0.0
 48
0.0
 49
0.0
140
0.0
141
0.0
142
1.0
143
1.0
 70
   688
 72
     0
 73
     0
 74
     5
  7

 75
    16
147
1.0
148
0.0
149
0.0
100
AcDbLayout
  1
Layout2
 70
     1
 71
     2
 10
0.0
 20
0.0
 11
0.0
 21
0.0
 12
0.0
 22
0.0
 32
0.0
 14
0.0
 24
0.0
 34
0.0
 15
0.0
 25
0.0
 35
0.0
146
0.0
 13
0.0
 23
0.0
 33
0.0
 16
1.0
 26
0.0
 36
0.0
 17
0.0
 27
1.0
 37
0.0
 76
     0
330
23
  0
LAYOUT
  5
22
102
{ACAD_REACTORS
330
1A
102
}
330
1A
100
AcDbPlotSettings
  1

  2
none_device
  4

  6

 40
0.0
 41
0.0
 42
0.0
 43
0.0
 44
0.0
 45
0.0
 46
0.0
 47
0.0
 48
0.0
 49
0.0
140
0.0
141
0.0
142
1.0
143
1.0
 70
  1712
 72
     0
 73
     0
 74
     0
  7

 75
     0
147
1.0
148
0.0
149
0.0
100
AcDbLayout
  1
Model
 70
     1
 71
     0
 10
0.0
 20
0.0
 11
12.0
 21
9.0
 12
0.0
 22
0.0
 32
0.0
 14
1.000000000000000E+20
 24
1.000000000000000E+20
 34
1.000000000000000E+20
 15
-1.000000000000000E+20
 25
-1.000000000000000E+20
 35
-1.000000000000000E+20
146
0.0
 13
0.0
 23
0.0
 33
0.0
 16
1.0
 26
0.0
 36
0.0
 17
0.0
 27
1.0
 37
0.0
 76
     0
330
1F
331
29
  0
MATERIAL
  5
3D
102
{ACAD_REACTORS
330
3B
102
}
102
{ACAD_XDICTIONARY
360
85
102
}
330
3B
100
AcDbMaterial
  1
ByBlock
  0
MATERIAL
  5
3C
102
{ACAD_REACTORS
330
3B
102
}
102
{ACAD_XDICTIONARY
360
83
102
}
330
3B
100
AcDbMaterial
  1
ByLayer
  0
MATERIAL
  5
3E
102
{ACAD_REACTORS
330
3B
102
}
102
{ACAD_XDICTIONARY
360
87
102
}
330
3B
100
AcDbMaterial
  1
Global
  0
MLINESTYLE
  5
18
102
{ACAD_REACTORS
330
17
102
}
330
17
100
AcDbMlineStyle
  2
Standard
 70
     0
  3

 62
   256
 51
90.0
 52
90.0
 71
     2
 49
0.5
 62
   256
  6
BYLAYER
 49
-0.5
 62
   256
  6
BYLAYER
  0
ACDBPLACEHOLDER
  5
F
102
{ACAD_REACTORS
330
E
102
}
330
E
  0
VISUALSTYLE
  5
2F
102
{ACAD_REACTORS
330
2A
102
}
102
{ACAD_XDICTIONARY
360
6B
102
}
330
2A
100
AcDbVisualStyle
  2
2dWireframe
 70
     4
 71
     0
 72
     2
 73
     0
 90
        0
 40
-0.6
 41
-30.0
 62
     5
 63
     7
 74
     1
 91
        4
 64
     7
 65
   257
 75
     1
175
     1
 42
1.0
 92
        0
 66
   257
 43
1.0
 76
     1
 77
     6
 78
     2
 67
     7
 79
     5
170
     0
171
     0
290
     0
174
     0
 93
        1
 44
0.0
173
     0
291
     0
 45
0.0
1001
ACAD
1000
AcDbSavedByObjectVersion
1070
     0
  0
VISUALSTYLE
  5
31
102
{ACAD_REACTORS
330
2A
102
}
102
{ACAD_XDICTIONARY
360
6F
102
}
330
2A
100
AcDbVisualStyle
  2
3D Hidden
 70
     6
 71
     1
 72
     2
 73
     2
 90
        0
 40
-0.6
 41
-30.0
 62
     5
 63
     7
 74
     2
 91
        2
 64
     7
 65
   257
 75
     2
175
     1
 42
40.0
 92
        0
 66
   257
 43
1.0
 76
     1
 77
     6
 78
     2
 67
     7
 79
     3
170
     0
171
     0
290
     0
174
     0
 93
        1
 44
0.0
173
     0
291
     0
 45
0.0
1001
ACAD
1000
AcDbSavedByObjectVersion
1070
     0
  0
VISUALSTYLE
  5
30
102
{ACAD_REACTORS
330
2A
102
}
102
{ACAD_XDICTIONARY
360
6D
102
}
330
2A
100
AcDbVisualStyle
  2
3dWireframe
 70
     5
 71
     0
 72
     2
 73
     0
 90
        0
 40
-0.6
 41
-30.0
 62
     5
 63
     7
 74
     1
 91
        4
 64
     7
 65
   257
 75
     1
175
     1
 42
1.0
 92
        0
 66
   257
 43
1.0
 76
     1
 77
     6
 78
     2
 67
     7
 79
     5
170
     0
171
     0
290
     0
174
     0
 93
        1
 44
0.0
173
     0
291
     0
 45
0.0
1001
ACAD
1000
AcDbSavedByObjectVersion
1070
     0
  0
VISUALSTYLE
  5
32
102
{ACAD_REACTORS
330
2A
102
}
102
{ACAD_XDICTIONARY
360
71
102
}
330
2A
100
AcDbVisualStyle
  2
Basic
 70
     7
 71
     1
 72
     0
 73
     1
 90
        0
 40
-0.6
 41
-30.0
 62
     5
 63
     7
 74
     0
 91
        4
 64
     7
 65
   257
 75
     1
175
     1
 42
1.0
 92
        8
 66
     7
 43
1.0
 76
     1
 77
     6
 78
     2
 67
     7
 79
     5
170
     0
171
     0
290
     0
174
     0
 93
        1
 44
0.0
173
     0
291
     1
 45
0.0
1001
ACAD
1000
AcDbSavedByObjectVersion
1070
     0
  0
VISUALSTYLE
  5
36
102
{ACAD_REACTORS
330
2A
102
}
102
{ACAD_XDICTIONARY
360
79
102
}
330
2A
100
AcDbVisualStyle
  2
Brighten
 70
    12
 71
     2
 72
     2
 73
     0
 90
        0
 40
-0.6
 41
-30.0
 62
     5
 63
     7
 74
     1
 91
        4
 64
     7
 65
   257
 75
     1
175
     1
 42
1.0
 92
        8
 66
     7
 43
1.0
 76
     1
 77
     6
 78
     2
 67
     7
 79
     5
170
     0
171
     0
290
     0
174
     0
 93
        1
 44
50.0
173
     0
291
     1
 45
0.0
1001
ACAD
1000
AcDbSavedByObjectVersion
1070
     0
  0
VISUALSTYLE
  5
3A
102
{ACAD_REACTORS
330
2A
102
}
102
{ACAD_XDICTIONARY
360
81
102
}
330
2A
100
AcDbVisualStyle
  2
ColorChange
 70
    16
 71
     2
 72
     2
 73
     3
 90
        0
 40
-0.6
 41
-30.0
 62
     5
 63
     8
 74
     1
 91
        4
 64
     7
 65
   257
 75
     1
175
     1
 42
1.0
 92
        8
 66
     8
 43
1.0
 76
     1
 77
     6
 78
     2
 67
     7
 79
     5
170
     0
171
     0
290
     0
174
     0
 93
        1
 44
0.0
173
     0
291
     1
 45
0.0
1001
ACAD
1000
AcDbSavedByObjectVersion
1070
     0
  0
VISUALSTYLE
  5
34
102
{ACAD_REACTORS
330
2A
102
}
102
{ACAD_XDICTIONARY
360
75
102
}
330
2A
100
AcDbVisualStyle
  2
Conceptual
 70
     9
 71
     3
 72
     2
 73
     0
 90
        0
 40
-0.6
 41
-30.0
 62
     5
 63
     7
 74
     2
 91
        2
 64
     7
 65
   257
 75
     1
175
     1
 42
40.0
 92
        8
 66
     7
 43
1.0
 76
     1
 77
     6
 78
     2
 67
     7
 79
     3
170
     0
171
     0
290
     0
174
     0
 93
        1
 44
0.0
173
     0
291
     0
 45
0.0
1001
ACAD
1000
AcDbSavedByObjectVersion
1070
     0
  0
VISUALSTYLE
  5
35
102
{ACAD_REACTORS
330
2A
102
}
102
{ACAD_XDICTIONARY
360
77
102
}
330
2A
100
AcDbVisualStyle
  2
Dim
 70
    11
 71
     2
 72
     2
 73
     0
 90
        0
 40
-0.6
 41
-30.0
 62
     5
 63
     7
 74
     1
 91
        4
 64
     7
 65
   257
 75
     1
175
     1
 42
1.0
 92
        8
 66
     7
 43
1.0
 76
     1
 77
     6
 78
     2
 67
     7
 79
     5
170
     0
171
     0
290
     0
174
     0
 93
        1
 44
-50.0
173
     0
291
     1
 45
0.0
1001
ACAD
1000
AcDbSavedByObjectVersion
1070
     0
  0
VISUALSTYLE
  5
39
102
{ACAD_REACTORS
330
2A
102
}
102
{ACAD_XDICTIONARY
360
7F
102
}
330
2A
100
AcDbVisualStyle
  2
Facepattern
 70
    15
 71
     2
 72
     2
 73
     0
 90
        0
 40
-0.6
 41
-30.0
 62
     5
 63
     7
 74
     1
 91
        4
 64
     7
 65
   257
 75
     1
175
     1
 42
1.0
 92
        8
 66
     7
 43
1.0
 76
     1
 77
     6
 78
     2
 67
     7
 79
     5
170
     0
171
     0
290
     0
174
     0
 93
        1
 44
0.0
173
     0
291
     1
 45
0.0
1001
ACAD
1000
AcDbSavedByObjectVersion
1070
     0
  0
VISUALSTYLE
  5
2B
102
{ACAD_REACTORS
330
2A
102
}
102
{ACAD_XDICTIONARY
360
63
102
}
330
2A
100
AcDbVisualStyle
  2
Flat
 70
     0
 71
     2
 72
     1
 73
     1
 90
        2
 40
-0.6
 41
30.0
 62
     5
 63
     7
 74
     0
 91
        4
 64
     7
 65
   257
 75
     1
175
     1
 42
1.0
 92
        8
 66
     7
 43
1.0
 76
     1
 77
     6
 78
     2
 67
     7
 79
     5
170
     0
171
     0
290
     0
174
     0
 93
       13
 44
0.0
173
     0
291
     1
 45
0.0
1001
ACAD
1000
AcDbSavedByObjectVersion
1070
     0
  0
VISUALSTYLE
  5
2C
102
{ACAD_REACTORS
330
2A
102
}
102
{ACAD_XDICTIONARY
360
65
102
}
330
2A
100
AcDbVisualStyle
  2
FlatWithEdges
 70
     1
 71
     2
 72
     1
 73
     1
 90
        2
 40
-0.6
 41
30.0
 62
     5
 63
     7
 74
     1
 91
        4
 64
     7
 65
   257
 75
     1
175
     1
 42
1.0
 92
        0
 66
   257
 43
1.0
 76
     1
 77
     6
 78
     2
 67
     7
 79
     5
170
     0
171
     0
290
     0
174
     0
 93
       13
 44
0.0
173
     0
291
     1
 45
0.0
1001
ACAD
1000
AcDbSavedByObjectVersion
1070
     0
  0
VISUALSTYLE
  5
2D
102
{ACAD_REACTORS
330
2A
102
}
102
{ACAD_XDICTIONARY
360
67
102
}
330
2A
100
AcDbVisualStyle
  2
Gouraud
 70
     2
 71
     2
 72
     2
 73
     1
 90
        2
 40
-0.6
 41
30.0
 62
     5
 63
     7
 74
     0
 91
        4
 64
     7
 65
   257
 75
     1
175
     1
 42
1.0
 92
        0
 66
     7
 43
1.0
 76
     1
 77
     6
 78
     2
 67
     7
 79
     5
170
     0
171
     0
290
     0
174
     0
 93
       13
 44
0.0
173
     0
291
     1
 45
0.0
1001
ACAD
1000
AcDbSavedByObjectVersion
1070
     0
  0
VISUALSTYLE
  5
2E
102
{ACAD_REACTORS
330
2A
102
}
102
{ACAD_XDICTIONARY
360
69
102
}
330
2A
100
AcDbVisualStyle
  2
GouraudWithEdges
 70
     3
 71
     2
 72
     2
 73
     1
 90
        2
 40
-0.6
 41
30.0
 62
     5
 63
     7
 74
     1
 91
        4
 64
     7
 65
   257
 75
     1
175
     1
 42
1.0
 92
        0
 66
   257
 43
1.0
 76
     1
 77
     6
 78
     2
 67
     7
 79
     5
170
     0
171
     0
290
     0
174
     0
 93
       13
 44
0.0
173
     0
291
     1
 45
0.0
1001
ACAD
1000
AcDbSavedByObjectVersion
1070
     0
  0
VISUALSTYLE
  5
38
102
{ACAD_REACTORS
330
2A
102
}
102
{ACAD_XDICTIONARY
360
7D
102
}
330
2A
100
AcDbVisualStyle
  2
Linepattern
 70
    14
 71
     2
 72
     2
 73
     0
 90
        0
 40
-0.6
 41
-30.0
 62
     5
 63
     7
 74
     1
 91
        4
 64
     7
 65
   257
 75
     7
175
     7
 42
1.0
 92
        8
 66
     7
 43
1.0
 76
     1
 77
     6
 78
     2
 67
     7
 79
     5
170
     0
171
     0
290
     0
174
     0
 93
        1
 44
0.0
173
     0
291
     1
 45
0.0
1001
ACAD
1000
AcDbSavedByObjectVersion
1070
     0
  0
VISUALSTYLE
  5
33
102
{ACAD_REACTORS
330
2A
102
}
102
{ACAD_XDICTIONARY
360
73
102
}
330
2A
100
AcDbVisualStyle
  2
Realistic
 70
     8
 71
     2
 72
     2
 73
     0
 90
        0
 40
-0.6
 41
-30.0
 62
     5
 63
     7
 74
     1
 91
        0
 64
     7
 65
   257
 75
     1
175
     1
 42
1.0
 92
        8
 66
     8
 43
1.0
 76
     1
 77
     6
 78
     2
 67
     7
 79
     5
170
     0
171
     0
290
     0
174
     0
 93
       13
 44
0.0
173
     0
291
     0
 45
0.0
1001
ACAD
1000
AcDbSavedByObjectVersion
1070
     0
  0
VISUALSTYLE
  5
37
102
{ACAD_REACTORS
330
2A
102
}
102
{ACAD_XDICTIONARY
360
7B
102
}
330
2A
100
AcDbVisualStyle
  2
Thicken
 70
    13
 71
     2
 72
     2
 73
     0
 90
        0
 40
-0.6
 41
-30.0
 62
     5
 63
     7
 74
     1
 91
        4
 64
     7
 65
   257
 75
     1
175
     1
 42
1.0
 92
       12
 66
     7
 43
1.0
 76
     1
 77
     6
 78
     2
 67
     7
 79
     5
170
     0
171
     0
290
     0
174
     0
 93
        1
 44
0.0
173
     0
291
     1
 45
0.0
1001
ACAD
1000
AcDbSavedByObjectVersion
1070
     0
  0
DICTIONARYVAR
  5
61
102
{ACAD_REACTORS
330
5E
102
}
330
5E
100
DictionaryVariables
280
     0
  1
2
  0
DICTIONARYVAR
  5
62
102
{ACAD_REACTORS
330
5E
102
}
330
5E
100
DictionaryVariables
280
     0
  1
1
  0
DICTIONARY
  5
85
330
3D
100
AcDbDictionary
280
     1
281
     1
  3
ACAD_XREC_ROUNDTRIP
360
86
  0
DICTIONARY
  5
83
330
3C
100
AcDbDictionary
280
     1
281
     1
  3
ACAD_XREC_ROUNDTRIP
360
84
  0
DICTIONARY
  5
87
330
3E
100
AcDbDictionary
280
     1
281
     1
  3
ACAD_XREC_ROUNDTRIP
360
88
  0
DICTIONARY
  5
6B
330
2F
100
AcDbDictionary
280
     1
281
     1
  3
ACAD_XREC_ROUNDTRIP
360
6C
  0
DICTIONARY
  5
6F
330
31
100
AcDbDictionary
280
     1
281
     1
  3
ACAD_XREC_ROUNDTRIP
360
70
  0
DICTIONARY
  5
6D
330
30
100
AcDbDictionary
280
     1
281
     1
  3
ACAD_XREC_ROUNDTRIP
360
6E
  0
DICTIONARY
  5
71
330
32
100
AcDbDictionary
280
     1
281
     1
  3
ACAD_XREC_ROUNDTRIP
360
72
  0
DICTIONARY
  5
79
330
36
100
AcDbDictionary
280
     1
281
     1
  3
ACAD_XREC_ROUNDTRIP
360
7A
  0
DICTIONARY
  5
81
330
3A
100
AcDbDictionary
280
     1
281
     1
  3
ACAD_XREC_ROUNDTRIP
360
82
  0
DICTIONARY
  5
75
330
34
100
AcDbDictionary
280
     1
281
     1
  3
ACAD_XREC_ROUNDTRIP
360
76
  0
DICTIONARY
  5
77
330
35
100
AcDbDictionary
280
     1
281
     1
  3
ACAD_XREC_ROUNDTRIP
360
78
  0
DICTIONARY
  5
7F
330
39
100
AcDbDictionary
280
     1
281
     1
  3
ACAD_XREC_ROUNDTRIP
360
80
  0
DICTIONARY
  5
63
330
2B
100
AcDbDictionary
280
     1
281
     1
  3
ACAD_XREC_ROUNDTRIP
360
64
  0
DICTIONARY
  5
65
330
2C
100
AcDbDictionary
280
     1
281
     1
  3
ACAD_XREC_ROUNDTRIP
360
66
  0
DICTIONARY
  5
67
330
2D
100
AcDbDictionary
280
     1
281
     1
  3
ACAD_XREC_ROUNDTRIP
360
68
  0
DICTIONARY
  5
69
330
2E
100
AcDbDictionary
280
     1
281
     1
  3
ACAD_XREC_ROUNDTRIP
360
6A
  0
DICTIONARY
  5
7D
330
38
100
AcDbDictionary
280
     1
281
     1
  3
ACAD_XREC_ROUNDTRIP
360
7E
  0
DICTIONARY
  5
73
330
33
100
AcDbDictionary
280
     1
281
     1
  3
ACAD_XREC_ROUNDTRIP
360
74
  0
DICTIONARY
  5
7B
330
37
100
AcDbDictionary
280
     1
281
     1
  3
ACAD_XREC_ROUNDTRIP
360
7C
  0
XRECORD
  5
86
102
{ACAD_REACTORS
330
85
102
}
330
85
100
AcDbXrecord
280
     1
102
MATERIAL
148
0.0
149
0.0
149
0.0
 93
        0
 94
      127
282
     0
 72
     1
 77
     1
171
     1
175
     1
179
     1
273
     0
  0
XRECORD
  5
84
102
{ACAD_REACTORS
330
83
102
}
330
83
100
AcDbXrecord
280
     1
102
MATERIAL
148
0.0
149
0.0
149
0.0
 93
        0
 94
      127
282
     0
 72
     1
 77
     1
171
     1
175
     1
179
     1
273
     0
  0
XRECORD
  5
88
102
{ACAD_REACTORS
330
87
102
}
330
87
100
AcDbXrecord
280
     1
102
MATERIAL
148
0.0
149
0.0
149
0.0
 93
        0
 94
      127
282
     0
 72
     1
 77
     1
171
     1
175
     1
179
     1
273
     0
  0
XRECORD
  5
6C
102
{ACAD_REACTORS
330
6B
102
}
330
6B
100
AcDbXrecord
280
     1
102
RTVSPropertyOp0
 70
     1
102
RTVSPropertyOp1
 70
     1
102
RTVSPropertyOp2
 70
     1
102
RTVSPropertyOp3
 70
     1
102
RTVSPropertyOp4
 70
     1
102
RTVSPropertyOp5
 70
     1
102
RTVSPropertyOp6
 70
     1
102
RTVSPropertyOp7
 70
     1
102
RTVSPropertyOp8
 70
     1
102
RTVSPropertyOp9
 70
     1
102
RTVSPropertyOp10
 70
     1
102
RTVSPropertyOp11
 70
     1
102
RTVSPropertyOp12
 70
     1
102
RTVSPropertyOp13
 70
     1
102
RTVSPropertyOp14
 70
     1
102
RTVSPropertyOp15
 70
     1
102
RTVSPropertyOp16
 70
     1
102
RTVSPropertyOp17
 70
     1
102
RTVSPropertyOp18
 70
     1
102
RTVSPropertyOp19
 70
     1
102
RTVSPropertyOp20
 70
     1
102
RTVSPropertyOp21
 70
     1
102
RTVSPropertyOp22
 70
     1
102
RTVSPropertyOp23
 70
     1
102
RTVSPropertyOp24
 70
     1
102
RTVSPropertyOp25
 70
     1
102
RTVSPropertyOp26
 70
     1
102
RTVSPropertyOp27
 70
     1
102
RTVSPropertyOp28
 70
     1
102
RTVSPropertyOp29
 70
     1
102
RTVSPropertyOp30
 70
     1
102
RTVSPropertyOp31
 70
     1
102
RTVSPropertyOp32
 70
     1
  0
XRECORD
  5
70
102
{ACAD_REACTORS
330
6F
102
}
330
6F
100
AcDbXrecord
280
     1
102
RTVSPropertyOp0
 70
     1
102
RTVSPropertyOp1
 70
     1
102
RTVSPropertyOp2
 70
     1
102
RTVSPropertyOp3
 70
     1
102
RTVSPropertyOp4
 70
     1
102
RTVSPropertyOp5
 70
     1
102
RTVSPropertyOp6
 70
     1
102
RTVSPropertyOp7
 70
     1
102
RTVSPropertyOp8
 70
     1
102
RTVSPropertyOp9
 70
     1
102
RTVSPropertyOp10
 70
     1
102
RTVSPropertyOp11
 70
     1
102
RTVSPropertyOp12
 70
     1
102
RTVSPropertyOp13
 70
     1
102
RTVSPropertyOp14
 70
     1
102
RTVSPropertyOp15
 70
     1
102
RTVSPropertyOp16
 70
     1
102
RTVSPropertyOp17
 70
     1
102
RTVSPropertyOp18
 70
     1
102
RTVSPropertyOp19
 70
     1
102
RTVSPropertyOp20
 70
     1
102
RTVSPropertyOp21
 70
     1
102
RTVSPropertyOp22
 70
     1
102
RTVSPropertyOp23
 70
     1
102
RTVSPropertyOp24
 70
     1
102
RTVSPropertyOp25
 70
     1
102
RTVSPropertyOp26
 70
     1
102
RTVSPropertyOp27
 70
     1
102
RTVSPropertyOp28
 70
     1
102
RTVSPropertyOp29
 70
     1
102
RTVSPropertyOp30
 70
     1
102
RTVSPropertyOp31
 70
     1
102
RTVSPropertyOp32
 70
     1
  0
XRECORD
  5
6E
102
{ACAD_REACTORS
330
6D
102
}
330
6D
100
AcDbXrecord
280
     1
102
RTVSPropertyOp0
 70
     1
102
RTVSPropertyOp1
 70
     1
102
RTVSPropertyOp2
 70
     1
102
RTVSPropertyOp3
 70
     1
102
RTVSPropertyOp4
 70
     1
102
RTVSPropertyOp5
 70
     1
102
RTVSPropertyOp6
 70
     1
102
RTVSPropertyOp7
 70
     1
102
RTVSPropertyOp8
 70
     1
102
RTVSPropertyOp9
 70
     1
102
RTVSPropertyOp10
 70
     1
102
RTVSPropertyOp11
 70
     1
102
RTVSPropertyOp12
 70
     1
102
RTVSPropertyOp13
 70
     1
102
RTVSPropertyOp14
 70
     1
102
RTVSPropertyOp15
 70
     1
102
RTVSPropertyOp16
 70
     1
102
RTVSPropertyOp17
 70
     1
102
RTVSPropertyOp18
 70
     1
102
RTVSPropertyOp19
 70
     1
102
RTVSPropertyOp20
 70
     1
102
RTVSPropertyOp21
 70
     1
102
RTVSPropertyOp22
 70
     1
102
RTVSPropertyOp23
 70
     1
102
RTVSPropertyOp24
 70
     1
102
RTVSPropertyOp25
 70
     1
102
RTVSPropertyOp26
 70
     1
102
RTVSPropertyOp27
 70
     1
102
RTVSPropertyOp28
 70
     1
102
RTVSPropertyOp29
 70
     1
102
RTVSPropertyOp30
 70
     1
102
RTVSPropertyOp31
 70
     1
102
RTVSPropertyOp32
 70
     1
  0
XRECORD
  5
72
102
{ACAD_REACTORS
330
71
102
}
330
71
100
AcDbXrecord
280
     1
102
RTVSPropertyOp0
 70
     1
102
RTVSPropertyOp1
 70
     1
102
RTVSPropertyOp2
 70
     1
102
RTVSPropertyOp3
 70
     1
102
RTVSPropertyOp4
 70
     1
102
RTVSPropertyOp5
 70
     1
102
RTVSPropertyOp6
 70
     1
102
RTVSPropertyOp7
 70
     1
102
RTVSPropertyOp8
 70
     1
102
RTVSPropertyOp9
 70
     1
102
RTVSPropertyOp10
 70
     1
102
RTVSPropertyOp11
 70
     1
102
RTVSPropertyOp12
 70
     1
102
RTVSPropertyOp13
 70
     1
102
RTVSPropertyOp14
 70
     1
102
RTVSPropertyOp15
 70
     1
102
RTVSPropertyOp16
 70
     1
102
RTVSPropertyOp17
 70
     1
102
RTVSPropertyOp18
 70
     1
102
RTVSPropertyOp19
 70
     1
102
RTVSPropertyOp20
 70
     1
102
RTVSPropertyOp21
 70
     1
102
RTVSPropertyOp22
 70
     1
102
RTVSPropertyOp23
 70
     1
102
RTVSPropertyOp24
 70
     1
102
RTVSPropertyOp25
 70
     1
102
RTVSPropertyOp26
 70
     1
102
RTVSPropertyOp27
 70
     1
102
RTVSPropertyOp28
 70
     1
102
RTVSPropertyOp29
 70
     1
102
RTVSPropertyOp30
 70
     1
102
RTVSPropertyOp31
 70
     1
102
RTVSPropertyOp32
 70
     1
  0
XRECORD
  5
7A
102
{ACAD_REACTORS
330
79
102
}
330
79
100
AcDbXrecord
280
     1
102
RTVSPropertyOp0
 70
     1
102
RTVSPropertyOp1
 70
     1
102
RTVSPropertyOp2
 70
     1
102
RTVSPropertyOp3
 70
     1
102
RTVSPropertyOp4
 70
     1
102
RTVSPropertyOp5
 70
     1
102
RTVSPropertyOp6
 70
     1
102
RTVSPropertyOp7
 70
     1
102
RTVSPropertyOp8
 70
     1
102
RTVSPropertyOp9
 70
     1
102
RTVSPropertyOp10
 70
     1
102
RTVSPropertyOp11
 70
     1
102
RTVSPropertyOp12
 70
     1
102
RTVSPropertyOp13
 70
     1
102
RTVSPropertyOp14
 70
     1
102
RTVSPropertyOp15
 70
     1
102
RTVSPropertyOp16
 70
     1
102
RTVSPropertyOp17
 70
     1
102
RTVSPropertyOp18
 70
     1
102
RTVSPropertyOp19
 70
     1
102
RTVSPropertyOp20
 70
     1
102
RTVSPropertyOp21
 70
     1
102
RTVSPropertyOp22
 70
     1
102
RTVSPropertyOp23
 70
     1
102
RTVSPropertyOp24
 70
     1
102
RTVSPropertyOp25
 70
     1
102
RTVSPropertyOp26
 70
     1
102
RTVSPropertyOp27
 70
     1
102
RTVSPropertyOp28
 70
     1
102
RTVSPropertyOp29
 70
     1
102
RTVSPropertyOp30
 70
     1
102
RTVSPropertyOp31
 70
     1
102
RTVSPropertyOp32
 70
     1
  0
XRECORD
  5
82
102
{ACAD_REACTORS
330
81
102
}
330
81
100
AcDbXrecord
280
     1
102
RTVSPropertyOp0
 70
     1
102
RTVSPropertyOp1
 70
     1
102
RTVSPropertyOp2
 70
     1
102
RTVSPropertyOp3
 70
     1
102
RTVSPropertyOp4
 70
     1
102
RTVSPropertyOp5
 70
     1
102
RTVSPropertyOp6
 70
     1
102
RTVSPropertyOp7
 70
     1
102
RTVSPropertyOp8
 70
     1
102
RTVSPropertyOp9
 70
     1
102
RTVSPropertyOp10
 70
     1
102
RTVSPropertyOp11
 70
     1
102
RTVSPropertyOp12
 70
     1
102
RTVSPropertyOp13
 70
     1
102
RTVSPropertyOp14
 70
     1
102
RTVSPropertyOp15
 70
     1
102
RTVSPropertyOp16
 70
     1
102
RTVSPropertyOp17
 70
     1
102
RTVSPropertyOp18
 70
     1
102
RTVSPropertyOp19
 70
     1
102
RTVSPropertyOp20
 70
     1
102
RTVSPropertyOp21
 70
     1
102
RTVSPropertyOp22
 70
     1
102
RTVSPropertyOp23
 70
     1
102
RTVSPropertyOp24
 70
     1
102
RTVSPropertyOp25
 70
     1
102
RTVSPropertyOp26
 70
     1
102
RTVSPropertyOp27
 70
     1
102
RTVSPropertyOp28
 70
     1
102
RTVSPropertyOp29
 70
     1
102
RTVSPropertyOp30
 70
     1
102
RTVSPropertyOp31
 70
     1
102
RTVSPropertyOp32
 70
     1
  0
XRECORD
  5
76
102
{ACAD_REACTORS
330
75
102
}
330
75
100
AcDbXrecord
280
     1
102
RTVSPropertyOp0
 70
     1
102
RTVSPropertyOp1
 70
     1
102
RTVSPropertyOp2
 70
     1
102
RTVSPropertyOp3
 70
     1
102
RTVSPropertyOp4
 70
     1
102
RTVSPropertyOp5
 70
     1
102
RTVSPropertyOp6
 70
     1
102
RTVSPropertyOp7
 70
     1
102
RTVSPropertyOp8
 70
     1
102
RTVSPropertyOp9
 70
     1
102
RTVSPropertyOp10
 70
     1
102
RTVSPropertyOp11
 70
     1
102
RTVSPropertyOp12
 70
     1
102
RTVSPropertyOp13
 70
     1
102
RTVSPropertyOp14
 70
     1
102
RTVSPropertyOp15
 70
     1
102
RTVSPropertyOp16
 70
     1
102
RTVSPropertyOp17
 70
     1
102
RTVSPropertyOp18
 70
     1
102
RTVSPropertyOp19
 70
     1
102
RTVSPropertyOp20
 70
     1
102
RTVSPropertyOp21
 70
     1
102
RTVSPropertyOp22
 70
     1
102
RTVSPropertyOp23
 70
     1
102
RTVSPropertyOp24
 70
     1
102
RTVSPropertyOp25
 70
     1
102
RTVSPropertyOp26
 70
     1
102
RTVSPropertyOp27
 70
     1
102
RTVSPropertyOp28
 70
     1
102
RTVSPropertyOp29
 70
     1
102
RTVSPropertyOp30
 70
     1
102
RTVSPropertyOp31
 70
     1
102
RTVSPropertyOp32
 70
     1
  0
XRECORD
  5
78
102
{ACAD_REACTORS
330
77
102
}
330
77
100
AcDbXrecord
280
     1
102
RTVSPropertyOp0
 70
     1
102
RTVSPropertyOp1
 70
     1
102
RTVSPropertyOp2
 70
     1
102
RTVSPropertyOp3
 70
     1
102
RTVSPropertyOp4
 70
     1
102
RTVSPropertyOp5
 70
     1
102
RTVSPropertyOp6
 70
     1
102
RTVSPropertyOp7
 70
     1
102
RTVSPropertyOp8
 70
     1
102
RTVSPropertyOp9
 70
     1
102
RTVSPropertyOp10
 70
     1
102
RTVSPropertyOp11
 70
     1
102
RTVSPropertyOp12
 70
     1
102
RTVSPropertyOp13
 70
     1
102
RTVSPropertyOp14
 70
     1
102
RTVSPropertyOp15
 70
     1
102
RTVSPropertyOp16
 70
     1
102
RTVSPropertyOp17
 70
     1
102
RTVSPropertyOp18
 70
     1
102
RTVSPropertyOp19
 70
     1
102
RTVSPropertyOp20
 70
     1
102
RTVSPropertyOp21
 70
     1
102
RTVSPropertyOp22
 70
     1
102
RTVSPropertyOp23
 70
     1
102
RTVSPropertyOp24
 70
     1
102
RTVSPropertyOp25
 70
     1
102
RTVSPropertyOp26
 70
     1
102
RTVSPropertyOp27
 70
     1
102
RTVSPropertyOp28
 70
     1
102
RTVSPropertyOp29
 70
     1
102
RTVSPropertyOp30
 70
     1
102
RTVSPropertyOp31
 70
     1
102
RTVSPropertyOp32
 70
     1
  0
XRECORD
  5
80
102
{ACAD_REACTORS
330
7F
102
}
330
7F
100
AcDbXrecord
280
     1
102
RTVSPropertyOp0
 70
     1
102
RTVSPropertyOp1
 70
     1
102
RTVSPropertyOp2
 70
     1
102
RTVSPropertyOp3
 70
     1
102
RTVSPropertyOp4
 70
     1
102
RTVSPropertyOp5
 70
     1
102
RTVSPropertyOp6
 70
     1
102
RTVSPropertyOp7
 70
     1
102
RTVSPropertyOp8
 70
     1
102
RTVSPropertyOp9
 70
     1
102
RTVSPropertyOp10
 70
     1
102
RTVSPropertyOp11
 70
     1
102
RTVSPropertyOp12
 70
     1
102
RTVSPropertyOp13
 70
     1
102
RTVSPropertyOp14
 70
     1
102
RTVSPropertyOp15
 70
     1
102
RTVSPropertyOp16
 70
     1
102
RTVSPropertyOp17
 70
     1
102
RTVSPropertyOp18
 70
     1
102
RTVSPropertyOp19
 70
     1
102
RTVSPropertyOp20
 70
     1
102
RTVSPropertyOp21
 70
     1
102
RTVSPropertyOp22
 70
     1
102
RTVSPropertyOp23
 70
     1
102
RTVSPropertyOp24
 70
     1
102
RTVSPropertyOp25
 70
     1
102
RTVSPropertyOp26
 70
     1
102
RTVSPropertyOp27
 70
     1
102
RTVSPropertyOp28
 70
     1
102
RTVSPropertyOp29
 70
     1
102
RTVSPropertyOp30
 70
     1
102
RTVSPropertyOp31
 70
     1
102
RTVSPropertyOp32
 70
     1
  0
XRECORD
  5
64
102
{ACAD_REACTORS
330
63
102
}
330
63
100
AcDbXrecord
280
     1
102
RTVSPropertyOp0
 70
     1
102
RTVSPropertyOp1
 70
     1
102
RTVSPropertyOp2
 70
     1
102
RTVSPropertyOp3
 70
     1
102
RTVSPropertyOp4
 70
     1
102
RTVSPropertyOp5
 70
     1
102
RTVSPropertyOp6
 70
     1
102
RTVSPropertyOp7
 70
     1
102
RTVSPropertyOp8
 70
     1
102
RTVSPropertyOp9
 70
     1
102
RTVSPropertyOp10
 70
     1
102
RTVSPropertyOp11
 70
     1
102
RTVSPropertyOp12
 70
     1
102
RTVSPropertyOp13
 70
     1
102
RTVSPropertyOp14
 70
     1
102
RTVSPropertyOp15
 70
     1
102
RTVSPropertyOp16
 70
     1
102
RTVSPropertyOp17
 70
     1
102
RTVSPropertyOp18
 70
     1
102
RTVSPropertyOp19
 70
     1
102
RTVSPropertyOp20
 70
     1
102
RTVSPropertyOp21
 70
     1
102
RTVSPropertyOp22
 70
     1
102
RTVSPropertyOp23
 70
     1
102
RTVSPropertyOp24
 70
     1
102
RTVSPropertyOp25
 70
     1
102
RTVSPropertyOp26
 70
     1
102
RTVSPropertyOp27
 70
     1
102
RTVSPropertyOp28
 70
     1
102
RTVSPropertyOp29
 70
     1
102
RTVSPropertyOp30
 70
     1
102
RTVSPropertyOp31
 70
     1
102
RTVSPropertyOp32
 70
     1
  0
XRECORD
  5
66
102
{ACAD_REACTORS
330
65
102
}
330
65
100
AcDbXrecord
280
     1
102
RTVSPropertyOp0
 70
     1
102
RTVSPropertyOp1
 70
     1
102
RTVSPropertyOp2
 70
     1
102
RTVSPropertyOp3
 70
     1
102
RTVSPropertyOp4
 70
     1
102
RTVSPropertyOp5
 70
     1
102
RTVSPropertyOp6
 70
     1
102
RTVSPropertyOp7
 70
     1
102
RTVSPropertyOp8
 70
     1
102
RTVSPropertyOp9
 70
     1
102
RTVSPropertyOp10
 70
     1
102
RTVSPropertyOp11
 70
     1
102
RTVSPropertyOp12
 70
     1
102
RTVSPropertyOp13
 70
     1
102
RTVSPropertyOp14
 70
     1
102
RTVSPropertyOp15
 70
     1
102
RTVSPropertyOp16
 70
     1
102
RTVSPropertyOp17
 70
     1
102
RTVSPropertyOp18
 70
     1
102
RTVSPropertyOp19
 70
     1
102
RTVSPropertyOp20
 70
     1
102
RTVSPropertyOp21
 70
     1
102
RTVSPropertyOp22
 70
     1
102
RTVSPropertyOp23
 70
     1
102
RTVSPropertyOp24
 70
     1
102
RTVSPropertyOp25
 70
     1
102
RTVSPropertyOp26
 70
     1
102
RTVSPropertyOp27
 70
     1
102
RTVSPropertyOp28
 70
     1
102
RTVSPropertyOp29
 70
     1
102
RTVSPropertyOp30
 70
     1
102
RTVSPropertyOp31
 70
     1
102
RTVSPropertyOp32
 70
     1
  0
XRECORD
  5
68
102
{ACAD_REACTORS
330
67
102
}
330
67
100
AcDbXrecord
280
     1
102
RTVSPropertyOp0
 70
     1
102
RTVSPropertyOp1
 70
     1
102
RTVSPropertyOp2
 70
     1
102
RTVSPropertyOp3
 70
     1
102
RTVSPropertyOp4
 70
     1
102
RTVSPropertyOp5
 70
     1
102
RTVSPropertyOp6
 70
     1
102
RTVSPropertyOp7
 70
     1
102
RTVSPropertyOp8
 70
     1
102
RTVSPropertyOp9
 70
     1
102
RTVSPropertyOp10
 70
     1
102
RTVSPropertyOp11
 70
     1
102
RTVSPropertyOp12
 70
     1
102
RTVSPropertyOp13
 70
     1
102
RTVSPropertyOp14
 70
     1
102
RTVSPropertyOp15
 70
     1
102
RTVSPropertyOp16
 70
     1
102
RTVSPropertyOp17
 70
     1
102
RTVSPropertyOp18
 70
     1
102
RTVSPropertyOp19
 70
     1
102
RTVSPropertyOp20
 70
     1
102
RTVSPropertyOp21
 70
     1
102
RTVSPropertyOp22
 70
     1
102
RTVSPropertyOp23
 70
     1
102
RTVSPropertyOp24
 70
     1
102
RTVSPropertyOp25
 70
     1
102
RTVSPropertyOp26
 70
     1
102
RTVSPropertyOp27
 70
     1
102
RTVSPropertyOp28
 70
     1
102
RTVSPropertyOp29
 70
     1
102
RTVSPropertyOp30
 70
     1
102
RTVSPropertyOp31
 70
     1
102
RTVSPropertyOp32
 70
     1
  0
XRECORD
  5
6A
102
{ACAD_REACTORS
330
69
102
}
330
69
100
AcDbXrecord
280
     1
102
RTVSPropertyOp0
 70
     1
102
RTVSPropertyOp1
 70
     1
102
RTVSPropertyOp2
 70
     1
102
RTVSPropertyOp3
 70
     1
102
RTVSPropertyOp4
 70
     1
102
RTVSPropertyOp5
 70
     1
102
RTVSPropertyOp6
 70
     1
102
RTVSPropertyOp7
 70
     1
102
RTVSPropertyOp8
 70
     1
102
RTVSPropertyOp9
 70
     1
102
RTVSPropertyOp10
 70
     1
102
RTVSPropertyOp11
 70
     1
102
RTVSPropertyOp12
 70
     1
102
RTVSPropertyOp13
 70
     1
102
RTVSPropertyOp14
 70
     1
102
RTVSPropertyOp15
 70
     1
102
RTVSPropertyOp16
 70
     1
102
RTVSPropertyOp17
 70
     1
102
RTVSPropertyOp18
 70
     1
102
RTVSPropertyOp19
 70
     1
102
RTVSPropertyOp20
 70
     1
102
RTVSPropertyOp21
 70
     1
102
RTVSPropertyOp22
 70
     1
102
RTVSPropertyOp23
 70
     1
102
RTVSPropertyOp24
 70
     1
102
RTVSPropertyOp25
 70
     1
102
RTVSPropertyOp26
 70
     1
102
RTVSPropertyOp27
 70
     1
102
RTVSPropertyOp28
 70
     1
102
RTVSPropertyOp29
 70
     1
102
RTVSPropertyOp30
 70
     1
102
RTVSPropertyOp31
 70
     1
102
RTVSPropertyOp32
 70
     1
  0
XRECORD
  5
7E
102
{ACAD_REACTORS
330
7D
102
}
330
7D
100
AcDbXrecord
280
     1
102
RTVSPropertyOp0
 70
     1
102
RTVSPropertyOp1
 70
     1
102
RTVSPropertyOp2
 70
     1
102
RTVSPropertyOp3
 70
     1
102
RTVSPropertyOp4
 70
     1
102
RTVSPropertyOp5
 70
     1
102
RTVSPropertyOp6
 70
     1
102
RTVSPropertyOp7
 70
     1
102
RTVSPropertyOp8
 70
     1
102
RTVSPropertyOp9
 70
     1
102
RTVSPropertyOp10
 70
     1
102
RTVSPropertyOp11
 70
     1
102
RTVSPropertyOp12
 70
     1
102
RTVSPropertyOp13
 70
     1
102
RTVSPropertyOp14
 70
     1
102
RTVSPropertyOp15
 70
     1
102
RTVSPropertyOp16
 70
     1
102
RTVSPropertyOp17
 70
     1
102
RTVSPropertyOp18
 70
     1
102
RTVSPropertyOp19
 70
     1
102
RTVSPropertyOp20
 70
     1
102
RTVSPropertyOp21
 70
     1
102
RTVSPropertyOp22
 70
     1
102
RTVSPropertyOp23
 70
     1
102
RTVSPropertyOp24
 70
     1
102
RTVSPropertyOp25
 70
     1
102
RTVSPropertyOp26
 70
     1
102
RTVSPropertyOp27
 70
     1
102
RTVSPropertyOp28
 70
     1
102
RTVSPropertyOp29
 70
     1
102
RTVSPropertyOp30
 70
     1
102
RTVSPropertyOp31
 70
     1
102
RTVSPropertyOp32
 70
     1
  0
XRECORD
  5
74
102
{ACAD_REACTORS
330
73
102
}
330
73
100
AcDbXrecord
280
     1
102
RTVSPropertyOp0
 70
     1
102
RTVSPropertyOp1
 70
     1
102
RTVSPropertyOp2
 70
     1
102
RTVSPropertyOp3
 70
     1
102
RTVSPropertyOp4
 70
     1
102
RTVSPropertyOp5
 70
     1
102
RTVSPropertyOp6
 70
     1
102
RTVSPropertyOp7
 70
     1
102
RTVSPropertyOp8
 70
     1
102
RTVSPropertyOp9
 70
     1
102
RTVSPropertyOp10
 70
     1
102
RTVSPropertyOp11
 70
     1
102
RTVSPropertyOp12
 70
     1
102
RTVSPropertyOp13
 70
     1
102
RTVSPropertyOp14
 70
     1
102
RTVSPropertyOp15
 70
     1
102
RTVSPropertyOp16
 70
     1
102
RTVSPropertyOp17
 70
     1
102
RTVSPropertyOp18
 70
     1
102
RTVSPropertyOp19
 70
     1
102
RTVSPropertyOp20
 70
     1
102
RTVSPropertyOp21
 70
     1
102
RTVSPropertyOp22
 70
     1
102
RTVSPropertyOp23
 70
     1
102
RTVSPropertyOp24
 70
     1
102
RTVSPropertyOp25
 70
     1
102
RTVSPropertyOp26
 70
     1
102
RTVSPropertyOp27
 70
     1
102
RTVSPropertyOp28
 70
     1
102
RTVSPropertyOp29
 70
     1
102
RTVSPropertyOp30
 70
     1
102
RTVSPropertyOp31
 70
     1
102
RTVSPropertyOp32
 70
     1
  0
XRECORD
  5
7C
102
{ACAD_REACTORS
330
7B
102
}
330
7B
100
AcDbXrecord
280
     1
102
RTVSPropertyOp0
 70
     1
102
RTVSPropertyOp1
 70
     1
102
RTVSPropertyOp2
 70
     1
102
RTVSPropertyOp3
 70
     1
102
RTVSPropertyOp4
 70
     1
102
RTVSPropertyOp5
 70
     1
102
RTVSPropertyOp6
 70
     1
102
RTVSPropertyOp7
 70
     1
102
RTVSPropertyOp8
 70
     1
102
RTVSPropertyOp9
 70
     1
102
RTVSPropertyOp10
 70
     1
102
RTVSPropertyOp11
 70
     1
102
RTVSPropertyOp12
 70
     1
102
RTVSPropertyOp13
 70
     1
102
RTVSPropertyOp14
 70
     1
102
RTVSPropertyOp15
 70
     1
102
RTVSPropertyOp16
 70
     1
102
RTVSPropertyOp17
 70
     1
102
RTVSPropertyOp18
 70
     1
102
RTVSPropertyOp19
 70
     1
102
RTVSPropertyOp20
 70
     1
102
RTVSPropertyOp21
 70
     1
102
RTVSPropertyOp22
 70
     1
102
RTVSPropertyOp23
 70
     1
102
RTVSPropertyOp24
 70
     1
102
RTVSPropertyOp25
 70
     1
102
RTVSPropertyOp26
 70
     1
102
RTVSPropertyOp27
 70
     1
102
RTVSPropertyOp28
 70
     1
102
RTVSPropertyOp29
 70
     1
102
RTVSPropertyOp30
 70
     1
102
RTVSPropertyOp31
 70
     1
102
RTVSPropertyOp32
 70
     1
  0
ENDSEC
  0
EOF
